%TF.GenerationSoftware,Altium Limited,Altium Designer,20.0.9 (164)*%
G04 Layer_Color=128*
%FSLAX26Y26*%
%MOIN*%
%TF.FileFunction,Paste,Bot*%
%TF.Part,Single*%
G01*
G75*
%TA.AperFunction,SMDPad,CuDef*%
%ADD24R,0.029528X0.106299*%
%ADD25R,0.118110X0.031496*%
%ADD26R,0.015748X0.029528*%
%ADD27R,0.064961X0.043307*%
%ADD28R,0.035433X0.074803*%
%ADD29R,0.125984X0.074803*%
%ADD30R,0.074803X0.061024*%
%ADD31R,0.062992X0.035433*%
%ADD32R,0.045276X0.070866*%
%ADD33R,0.066929X0.037402*%
%ADD34O,0.009842X0.061024*%
%ADD35O,0.061024X0.009842*%
%ADD36R,0.059055X0.055118*%
%ADD37R,0.074803X0.059055*%
%ADD38R,0.059055X0.074803*%
%ADD39R,0.094488X0.074803*%
%ADD40R,0.070866X0.051181*%
%ADD41R,0.035433X0.062992*%
%ADD42R,0.051181X0.057087*%
G04:AMPARAMS|DCode=43|XSize=21.654mil|YSize=49.213mil|CornerRadius=1.949mil|HoleSize=0mil|Usage=FLASHONLY|Rotation=180.000|XOffset=0mil|YOffset=0mil|HoleType=Round|Shape=RoundedRectangle|*
%AMROUNDEDRECTD43*
21,1,0.021654,0.045315,0,0,180.0*
21,1,0.017756,0.049213,0,0,180.0*
1,1,0.003898,-0.008878,0.022657*
1,1,0.003898,0.008878,0.022657*
1,1,0.003898,0.008878,-0.022657*
1,1,0.003898,-0.008878,-0.022657*
%
%ADD43ROUNDEDRECTD43*%
%ADD44R,0.066929X0.045276*%
G36*
X3003150Y989134D02*
X2991339D01*
Y1014724D01*
X3003150D01*
Y989134D01*
D02*
G37*
G36*
X2979528D02*
X2967716D01*
Y1014724D01*
X2979528D01*
Y989134D01*
D02*
G37*
G36*
X2955905D02*
X2944095D01*
Y1014724D01*
X2955905D01*
Y989134D01*
D02*
G37*
G36*
X2932284D02*
X2920472D01*
Y1014724D01*
X2932284D01*
Y989134D01*
D02*
G37*
G36*
X2908661D02*
X2896850D01*
Y1014724D01*
X2908661D01*
Y989134D01*
D02*
G37*
G36*
X3006949Y921221D02*
X2974153D01*
Y948780D01*
X3006949D01*
Y921221D01*
D02*
G37*
G36*
X2966398D02*
X2933602D01*
Y948780D01*
X2966398D01*
Y921221D01*
D02*
G37*
G36*
X2925847D02*
X2893051D01*
Y948780D01*
X2925847D01*
Y921221D01*
D02*
G37*
G36*
X3003150Y869055D02*
X2991339D01*
Y894646D01*
X3003150D01*
Y869055D01*
D02*
G37*
G36*
X2979528D02*
X2967716D01*
Y894646D01*
X2979528D01*
Y869055D01*
D02*
G37*
G36*
X2955905D02*
X2944095D01*
Y894646D01*
X2955905D01*
Y869055D01*
D02*
G37*
G36*
X2932284D02*
X2920472D01*
Y894646D01*
X2932284D01*
Y869055D01*
D02*
G37*
G36*
X2908661D02*
X2896850D01*
Y894646D01*
X2908661D01*
Y869055D01*
D02*
G37*
D24*
X2392992Y945000D02*
D03*
X2517008D02*
D03*
X2392992Y1470000D02*
D03*
X2517008D02*
D03*
Y2490000D02*
D03*
X2392992D02*
D03*
D25*
X2950000Y935000D02*
D03*
D26*
X2997244Y1001929D02*
D03*
X2973622D02*
D03*
X2950000D02*
D03*
X2926378D02*
D03*
X2902756D02*
D03*
Y881850D02*
D03*
X2926378D02*
D03*
X2950000D02*
D03*
X2973622D02*
D03*
X2997244D02*
D03*
D27*
X1385000Y2671102D02*
D03*
Y2558898D02*
D03*
X2695472Y2034567D02*
D03*
Y1922362D02*
D03*
D28*
X1949449Y1226142D02*
D03*
X2040000D02*
D03*
X2130551D02*
D03*
D29*
X2040000Y993858D02*
D03*
D30*
X2805000Y876929D02*
D03*
Y993071D02*
D03*
D31*
X3085000Y886850D02*
D03*
Y993150D02*
D03*
D32*
X3019055Y1160000D02*
D03*
X2900945D02*
D03*
D33*
X3175000Y886850D02*
D03*
Y993150D02*
D03*
D34*
X2127795Y2111929D02*
D03*
X2108110D02*
D03*
X2088425D02*
D03*
X2068740D02*
D03*
X2049055D02*
D03*
X2029370D02*
D03*
X2009685D02*
D03*
X1990000D02*
D03*
X1970315D02*
D03*
X1950630D02*
D03*
X1930945D02*
D03*
X1911260D02*
D03*
Y1795000D02*
D03*
X1930945D02*
D03*
X1950630D02*
D03*
X1970315D02*
D03*
X1990000D02*
D03*
X2009685D02*
D03*
X2029370D02*
D03*
X2049055D02*
D03*
X2068740D02*
D03*
X2088425D02*
D03*
X2108110D02*
D03*
X2127795D02*
D03*
D35*
X1861063Y2061732D02*
D03*
Y2042047D02*
D03*
Y2022362D02*
D03*
Y2002677D02*
D03*
Y1982992D02*
D03*
Y1963307D02*
D03*
Y1943622D02*
D03*
Y1923937D02*
D03*
Y1904252D02*
D03*
Y1884567D02*
D03*
Y1864882D02*
D03*
Y1845197D02*
D03*
X2177992D02*
D03*
Y1864882D02*
D03*
Y1884567D02*
D03*
Y1904252D02*
D03*
Y1923937D02*
D03*
Y1943622D02*
D03*
Y1963307D02*
D03*
Y1982992D02*
D03*
Y2002677D02*
D03*
Y2022362D02*
D03*
Y2042047D02*
D03*
Y2061732D02*
D03*
D36*
X3535000Y2004055D02*
D03*
Y1885945D02*
D03*
D37*
X1890000Y1415945D02*
D03*
Y1534055D02*
D03*
X1680000Y1970945D02*
D03*
Y2089055D02*
D03*
D38*
X1999055Y1680000D02*
D03*
X1880945D02*
D03*
X2170945Y2210000D02*
D03*
X2289055D02*
D03*
D39*
X2560472Y2059882D02*
D03*
Y1898465D02*
D03*
D40*
X3535000Y2113976D02*
D03*
Y2236024D02*
D03*
D41*
X2061850Y2340000D02*
D03*
X2168150D02*
D03*
D42*
X2793976Y1928465D02*
D03*
X2856968D02*
D03*
X2793976Y2028465D02*
D03*
X2856968D02*
D03*
D43*
X1705000Y1371654D02*
D03*
X1655000D02*
D03*
X1605000D02*
D03*
X1555000D02*
D03*
X1705000Y1578347D02*
D03*
X1655000D02*
D03*
X1605000D02*
D03*
X1555000D02*
D03*
D44*
X1785000Y1423819D02*
D03*
Y1526181D02*
D03*
%TF.MD5,cde1a1e741bd52f5e9808fe817e18fc8*%
M02*
