%TF.GenerationSoftware,Altium Limited,Altium Designer,20.0.9 (164)*%
G04 Layer_Physical_Order=2*
G04 Layer_Color=36540*
%FSLAX26Y26*%
%MOIN*%
%TF.FileFunction,Copper,L2,Inr,Signal*%
%TF.Part,Single*%
G01*
G75*
%TA.AperFunction,Conductor*%
%ADD14C,0.010000*%
%TA.AperFunction,ComponentPad*%
%ADD16C,0.070866*%
%ADD17R,0.070866X0.070866*%
%ADD18C,0.119685*%
%ADD19R,0.061024X0.061024*%
%ADD20C,0.061024*%
%TA.AperFunction,ViaPad*%
%ADD21C,0.040000*%
%ADD22C,0.150000*%
G36*
X3640000Y5000D02*
X3640381Y4619D01*
X3638467Y0D01*
X1275000D01*
Y3135000D01*
X3640000D01*
Y5000D01*
D02*
G37*
%LPC*%
G36*
X2334264Y3075512D02*
X2253240D01*
Y2994488D01*
X2334264D01*
Y3075512D01*
D02*
G37*
G36*
X2593752Y3075861D02*
X2583176Y3074469D01*
X2573321Y3070387D01*
X2564858Y3063893D01*
X2558365Y3055431D01*
X2554283Y3045576D01*
X2552890Y3035000D01*
X2554283Y3024424D01*
X2558365Y3014569D01*
X2564858Y3006107D01*
X2573321Y2999613D01*
X2583176Y2995531D01*
X2593752Y2994139D01*
X2604327Y2995531D01*
X2614182Y2999613D01*
X2622645Y3006107D01*
X2629139Y3014569D01*
X2633221Y3024424D01*
X2634613Y3035000D01*
X2633221Y3045576D01*
X2629139Y3055431D01*
X2622645Y3063893D01*
X2614182Y3070387D01*
X2604327Y3074469D01*
X2593752Y3075861D01*
D02*
G37*
G36*
X2493752D02*
X2483176Y3074469D01*
X2473321Y3070387D01*
X2464858Y3063893D01*
X2458365Y3055431D01*
X2454283Y3045576D01*
X2452890Y3035000D01*
X2454283Y3024424D01*
X2458365Y3014569D01*
X2464858Y3006107D01*
X2473321Y2999613D01*
X2483176Y2995531D01*
X2493752Y2994139D01*
X2504327Y2995531D01*
X2514182Y2999613D01*
X2522645Y3006107D01*
X2529139Y3014569D01*
X2533221Y3024424D01*
X2534613Y3035000D01*
X2533221Y3045576D01*
X2529139Y3055431D01*
X2522645Y3063893D01*
X2514182Y3070387D01*
X2504327Y3074469D01*
X2493752Y3075861D01*
D02*
G37*
G36*
X2393752D02*
X2383176Y3074469D01*
X2373321Y3070387D01*
X2364858Y3063893D01*
X2358365Y3055431D01*
X2354283Y3045576D01*
X2352890Y3035000D01*
X2354283Y3024424D01*
X2358365Y3014569D01*
X2364858Y3006107D01*
X2373321Y2999613D01*
X2383176Y2995531D01*
X2393752Y2994139D01*
X2404327Y2995531D01*
X2414182Y2999613D01*
X2422645Y3006107D01*
X2429139Y3014569D01*
X2433221Y3024424D01*
X2434613Y3035000D01*
X2433221Y3045576D01*
X2429139Y3055431D01*
X2422645Y3063893D01*
X2414182Y3070387D01*
X2404327Y3074469D01*
X2393752Y3075861D01*
D02*
G37*
G36*
X3495000Y3080411D02*
X3478337Y3078770D01*
X3462314Y3073910D01*
X3447548Y3066017D01*
X3434605Y3055395D01*
X3423983Y3042452D01*
X3416090Y3027686D01*
X3411230Y3011663D01*
X3409589Y2995000D01*
X3411230Y2978337D01*
X3416090Y2962314D01*
X3423983Y2947548D01*
X3434605Y2934605D01*
X3447548Y2923983D01*
X3462314Y2916090D01*
X3478337Y2911230D01*
X3495000Y2909589D01*
X3511663Y2911230D01*
X3527686Y2916090D01*
X3542452Y2923983D01*
X3555395Y2934605D01*
X3566017Y2947548D01*
X3573910Y2962314D01*
X3578770Y2978337D01*
X3580411Y2995000D01*
X3578770Y3011663D01*
X3573910Y3027686D01*
X3566017Y3042452D01*
X3555395Y3055395D01*
X3542452Y3066017D01*
X3527686Y3073910D01*
X3511663Y3078770D01*
X3495000Y3080411D01*
D02*
G37*
G36*
X1435000Y3075411D02*
X1418337Y3073770D01*
X1402314Y3068910D01*
X1387548Y3061017D01*
X1374605Y3050395D01*
X1363983Y3037452D01*
X1356090Y3022686D01*
X1351230Y3006663D01*
X1349589Y2990000D01*
X1351230Y2973337D01*
X1356090Y2957314D01*
X1363983Y2942548D01*
X1374605Y2929605D01*
X1387548Y2918983D01*
X1402314Y2911090D01*
X1418337Y2906230D01*
X1435000Y2904589D01*
X1451663Y2906230D01*
X1467686Y2911090D01*
X1482452Y2918983D01*
X1495395Y2929605D01*
X1506017Y2942548D01*
X1513910Y2957314D01*
X1518770Y2973337D01*
X1520411Y2990000D01*
X1518770Y3006663D01*
X1513910Y3022686D01*
X1506017Y3037452D01*
X1495395Y3050395D01*
X1482452Y3061017D01*
X1467686Y3068910D01*
X1451663Y3073770D01*
X1435000Y3075411D01*
D02*
G37*
G36*
X3165000Y2844601D02*
Y2820000D01*
X3189601D01*
X3189228Y2822832D01*
X3186205Y2830129D01*
X3181396Y2836396D01*
X3175129Y2841205D01*
X3167832Y2844228D01*
X3165000Y2844601D01*
D02*
G37*
G36*
X3155000D02*
X3152168Y2844228D01*
X3144871Y2841205D01*
X3138604Y2836396D01*
X3133795Y2830129D01*
X3130772Y2822832D01*
X3130399Y2820000D01*
X3155000D01*
Y2844601D01*
D02*
G37*
G36*
X1480000D02*
Y2820000D01*
X1504601D01*
X1504228Y2822832D01*
X1501205Y2830129D01*
X1496396Y2836396D01*
X1490129Y2841205D01*
X1482832Y2844228D01*
X1480000Y2844601D01*
D02*
G37*
G36*
X1470000D02*
X1467168Y2844228D01*
X1459871Y2841205D01*
X1453604Y2836396D01*
X1448795Y2830129D01*
X1445772Y2822832D01*
X1445399Y2820000D01*
X1470000D01*
Y2844601D01*
D02*
G37*
G36*
X2325918Y2843683D02*
Y2819082D01*
X2350518D01*
X2350145Y2821914D01*
X2347122Y2829212D01*
X2342314Y2835479D01*
X2336047Y2840287D01*
X2328749Y2843310D01*
X2325918Y2843683D01*
D02*
G37*
G36*
X2315918D02*
X2313086Y2843310D01*
X2305788Y2840287D01*
X2299521Y2835479D01*
X2294713Y2829212D01*
X2291690Y2821914D01*
X2291317Y2819082D01*
X2315918D01*
Y2843683D01*
D02*
G37*
G36*
X3189601Y2810000D02*
X3165000D01*
Y2785399D01*
X3167832Y2785772D01*
X3175129Y2788795D01*
X3181396Y2793604D01*
X3186205Y2799871D01*
X3189228Y2807168D01*
X3189601Y2810000D01*
D02*
G37*
G36*
X3155000D02*
X3130399D01*
X3130772Y2807168D01*
X3133795Y2799871D01*
X3138604Y2793604D01*
X3144871Y2788795D01*
X3152168Y2785772D01*
X3155000Y2785399D01*
Y2810000D01*
D02*
G37*
G36*
X1504601D02*
X1480000D01*
Y2785399D01*
X1482832Y2785772D01*
X1490129Y2788795D01*
X1496396Y2793604D01*
X1501205Y2799871D01*
X1504228Y2807168D01*
X1504601Y2810000D01*
D02*
G37*
G36*
X1470000D02*
X1445399D01*
X1445772Y2807168D01*
X1448795Y2799871D01*
X1453604Y2793604D01*
X1459871Y2788795D01*
X1467168Y2785772D01*
X1470000Y2785399D01*
Y2810000D01*
D02*
G37*
G36*
X2350518Y2809082D02*
X2325918D01*
Y2784482D01*
X2328749Y2784855D01*
X2336047Y2787878D01*
X2342314Y2792686D01*
X2347122Y2798953D01*
X2350145Y2806251D01*
X2350518Y2809082D01*
D02*
G37*
G36*
X2315918D02*
X2291317D01*
X2291690Y2806251D01*
X2294713Y2798953D01*
X2299521Y2792686D01*
X2305788Y2787878D01*
X2313086Y2784855D01*
X2315918Y2784482D01*
Y2809082D01*
D02*
G37*
G36*
X1385000Y2780259D02*
X1377168Y2779228D01*
X1369871Y2776205D01*
X1363604Y2771396D01*
X1358795Y2765129D01*
X1355772Y2757832D01*
X1354741Y2750000D01*
X1355772Y2742168D01*
X1358795Y2734871D01*
X1363604Y2728604D01*
X1369871Y2723795D01*
X1377168Y2720772D01*
X1385000Y2719741D01*
X1392832Y2720772D01*
X1400129Y2723795D01*
X1406396Y2728604D01*
X1411205Y2734871D01*
X1414228Y2742168D01*
X1415259Y2750000D01*
X1414228Y2757832D01*
X1411205Y2765129D01*
X1406396Y2771396D01*
X1400129Y2776205D01*
X1392832Y2779228D01*
X1385000Y2780259D01*
D02*
G37*
G36*
X3435000Y2715259D02*
X3427168Y2714228D01*
X3419871Y2711205D01*
X3413604Y2706396D01*
X3408795Y2700129D01*
X3405772Y2692832D01*
X3404741Y2685000D01*
X3405772Y2677168D01*
X3408795Y2669871D01*
X3413604Y2663604D01*
X3419871Y2658795D01*
X3427168Y2655772D01*
X3435000Y2654741D01*
X3442832Y2655772D01*
X3450129Y2658795D01*
X3456396Y2663604D01*
X3461205Y2669871D01*
X3464228Y2677168D01*
X3465259Y2685000D01*
X3464228Y2692832D01*
X3461205Y2700129D01*
X3456396Y2706396D01*
X3450129Y2711205D01*
X3442832Y2714228D01*
X3435000Y2715259D01*
D02*
G37*
G36*
X2595000D02*
X2587168Y2714228D01*
X2579871Y2711205D01*
X2573604Y2706396D01*
X2568795Y2700129D01*
X2565772Y2692832D01*
X2564741Y2685000D01*
X2565772Y2677168D01*
X2568795Y2669871D01*
X2573604Y2663604D01*
X2579871Y2658795D01*
X2587168Y2655772D01*
X2595000Y2654741D01*
X2602832Y2655772D01*
X2610129Y2658795D01*
X2616396Y2663604D01*
X2621205Y2669871D01*
X2624228Y2677168D01*
X2625259Y2685000D01*
X2624228Y2692832D01*
X2621205Y2700129D01*
X2616396Y2706396D01*
X2610129Y2711205D01*
X2602832Y2714228D01*
X2595000Y2715259D01*
D02*
G37*
G36*
X1750000D02*
X1742168Y2714228D01*
X1734871Y2711205D01*
X1728604Y2706396D01*
X1723795Y2700129D01*
X1720772Y2692832D01*
X1719741Y2685000D01*
X1720772Y2677168D01*
X1723795Y2669871D01*
X1728604Y2663604D01*
X1734871Y2658795D01*
X1742168Y2655772D01*
X1750000Y2654741D01*
X1757832Y2655772D01*
X1765129Y2658795D01*
X1771396Y2663604D01*
X1776205Y2669871D01*
X1779228Y2677168D01*
X1780259Y2685000D01*
X1779228Y2692832D01*
X1776205Y2700129D01*
X1771396Y2706396D01*
X1765129Y2711205D01*
X1757832Y2714228D01*
X1750000Y2715259D01*
D02*
G37*
G36*
X3165000Y2339601D02*
Y2315000D01*
X3189601D01*
X3189228Y2317832D01*
X3186205Y2325129D01*
X3181396Y2331396D01*
X3175129Y2336205D01*
X3167832Y2339228D01*
X3165000Y2339601D01*
D02*
G37*
G36*
X3155000D02*
X3152168Y2339228D01*
X3144871Y2336205D01*
X3138604Y2331396D01*
X3133795Y2325129D01*
X3130772Y2317832D01*
X3130399Y2315000D01*
X3155000D01*
Y2339601D01*
D02*
G37*
G36*
X2325000D02*
Y2315000D01*
X2349601D01*
X2349228Y2317832D01*
X2346205Y2325129D01*
X2341396Y2331396D01*
X2335129Y2336205D01*
X2327832Y2339228D01*
X2325000Y2339601D01*
D02*
G37*
G36*
X2315000D02*
X2312168Y2339228D01*
X2304871Y2336205D01*
X2298604Y2331396D01*
X2293795Y2325129D01*
X2290772Y2317832D01*
X2290399Y2315000D01*
X2315000D01*
Y2339601D01*
D02*
G37*
G36*
X1480000D02*
Y2315000D01*
X1504601D01*
X1504228Y2317832D01*
X1501205Y2325129D01*
X1496396Y2331396D01*
X1490129Y2336205D01*
X1482832Y2339228D01*
X1480000Y2339601D01*
D02*
G37*
G36*
X1470000D02*
X1467168Y2339228D01*
X1459871Y2336205D01*
X1453604Y2331396D01*
X1448795Y2325129D01*
X1445772Y2317832D01*
X1445399Y2315000D01*
X1470000D01*
Y2339601D01*
D02*
G37*
G36*
X2230000Y2370259D02*
X2222168Y2369228D01*
X2214871Y2366205D01*
X2208604Y2361396D01*
X2203795Y2355129D01*
X2200772Y2347832D01*
X2199741Y2340000D01*
X2200772Y2332168D01*
X2203795Y2324871D01*
X2208604Y2318604D01*
X2214871Y2313795D01*
X2222168Y2310772D01*
X2230000Y2309741D01*
X2237832Y2310772D01*
X2245129Y2313795D01*
X2251396Y2318604D01*
X2256205Y2324871D01*
X2259228Y2332168D01*
X2260259Y2340000D01*
X2259228Y2347832D01*
X2256205Y2355129D01*
X2251396Y2361396D01*
X2245129Y2366205D01*
X2237832Y2369228D01*
X2230000Y2370259D01*
D02*
G37*
G36*
X3189601Y2305000D02*
X3165000D01*
Y2280399D01*
X3167832Y2280772D01*
X3175129Y2283795D01*
X3181396Y2288604D01*
X3186205Y2294871D01*
X3189228Y2302168D01*
X3189601Y2305000D01*
D02*
G37*
G36*
X3155000D02*
X3130399D01*
X3130772Y2302168D01*
X3133795Y2294871D01*
X3138604Y2288604D01*
X3144871Y2283795D01*
X3152168Y2280772D01*
X3155000Y2280399D01*
Y2305000D01*
D02*
G37*
G36*
X2349601D02*
X2325000D01*
Y2280399D01*
X2327832Y2280772D01*
X2335129Y2283795D01*
X2341396Y2288604D01*
X2346205Y2294871D01*
X2349228Y2302168D01*
X2349601Y2305000D01*
D02*
G37*
G36*
X2315000D02*
X2290399D01*
X2290772Y2302168D01*
X2293795Y2294871D01*
X2298604Y2288604D01*
X2304871Y2283795D01*
X2312168Y2280772D01*
X2315000Y2280399D01*
Y2305000D01*
D02*
G37*
G36*
X1504601D02*
X1480000D01*
Y2280399D01*
X1482832Y2280772D01*
X1490129Y2283795D01*
X1496396Y2288604D01*
X1501205Y2294871D01*
X1504228Y2302168D01*
X1504601Y2305000D01*
D02*
G37*
G36*
X1470000D02*
X1445399D01*
X1445772Y2302168D01*
X1448795Y2294871D01*
X1453604Y2288604D01*
X1459871Y2283795D01*
X1467168Y2280772D01*
X1470000Y2280399D01*
Y2305000D01*
D02*
G37*
G36*
X1850000Y2220259D02*
X1842168Y2219228D01*
X1834871Y2216205D01*
X1828604Y2211396D01*
X1823795Y2205129D01*
X1820772Y2197832D01*
X1819741Y2190000D01*
X1820772Y2182168D01*
X1823795Y2174871D01*
X1828604Y2168604D01*
X1834871Y2163795D01*
X1842168Y2160772D01*
X1850000Y2159741D01*
X1857832Y2160772D01*
X1865129Y2163795D01*
X1871396Y2168604D01*
X1876205Y2174871D01*
X1879228Y2182168D01*
X1880259Y2190000D01*
X1879228Y2197832D01*
X1876205Y2205129D01*
X1871396Y2211396D01*
X1865129Y2216205D01*
X1857832Y2219228D01*
X1850000Y2220259D01*
D02*
G37*
G36*
X3435000Y2210259D02*
X3427168Y2209228D01*
X3419871Y2206205D01*
X3413604Y2201396D01*
X3408795Y2195129D01*
X3405772Y2187832D01*
X3404741Y2180000D01*
X3405772Y2172168D01*
X3408795Y2164871D01*
X3413604Y2158604D01*
X3419871Y2153795D01*
X3427168Y2150772D01*
X3435000Y2149741D01*
X3442832Y2150772D01*
X3450129Y2153795D01*
X3456396Y2158604D01*
X3461205Y2164871D01*
X3464228Y2172168D01*
X3465259Y2180000D01*
X3464228Y2187832D01*
X3461205Y2195129D01*
X3456396Y2201396D01*
X3450129Y2206205D01*
X3442832Y2209228D01*
X3435000Y2210259D01*
D02*
G37*
G36*
X2595000D02*
X2587168Y2209228D01*
X2579871Y2206205D01*
X2573604Y2201396D01*
X2568795Y2195129D01*
X2565772Y2187832D01*
X2564741Y2180000D01*
X2565772Y2172168D01*
X2568795Y2164871D01*
X2573604Y2158604D01*
X2579871Y2153795D01*
X2587168Y2150772D01*
X2595000Y2149741D01*
X2602832Y2150772D01*
X2610129Y2153795D01*
X2616396Y2158604D01*
X2621205Y2164871D01*
X2624228Y2172168D01*
X2625259Y2180000D01*
X2624228Y2187832D01*
X2621205Y2195129D01*
X2616396Y2201396D01*
X2610129Y2206205D01*
X2602832Y2209228D01*
X2595000Y2210259D01*
D02*
G37*
G36*
X1750000D02*
X1742168Y2209228D01*
X1734871Y2206205D01*
X1728604Y2201396D01*
X1723795Y2195129D01*
X1720772Y2187832D01*
X1719741Y2180000D01*
X1720772Y2172168D01*
X1723795Y2164871D01*
X1728604Y2158604D01*
X1734871Y2153795D01*
X1742168Y2150772D01*
X1750000Y2149741D01*
X1757832Y2150772D01*
X1765129Y2153795D01*
X1771396Y2158604D01*
X1776205Y2164871D01*
X1779228Y2172168D01*
X1780259Y2180000D01*
X1779228Y2187832D01*
X1776205Y2195129D01*
X1771396Y2201396D01*
X1765129Y2206205D01*
X1757832Y2209228D01*
X1750000Y2210259D01*
D02*
G37*
G36*
X1680000Y2120259D02*
X1672168Y2119228D01*
X1664871Y2116205D01*
X1658604Y2111396D01*
X1653795Y2105129D01*
X1650772Y2097832D01*
X1649741Y2090000D01*
X1650772Y2082168D01*
X1653795Y2074871D01*
X1658604Y2068604D01*
X1664871Y2063795D01*
X1672168Y2060772D01*
X1680000Y2059741D01*
X1687832Y2060772D01*
X1695129Y2063795D01*
X1701396Y2068604D01*
X1706205Y2074871D01*
X1709228Y2082168D01*
X1710259Y2090000D01*
X1709228Y2097832D01*
X1706205Y2105129D01*
X1701396Y2111396D01*
X1695129Y2116205D01*
X1687832Y2119228D01*
X1680000Y2120259D01*
D02*
G37*
G36*
X2265000Y2085259D02*
X2257168Y2084228D01*
X2249871Y2081205D01*
X2243604Y2076396D01*
X2238795Y2070129D01*
X2235772Y2062832D01*
X2234741Y2055000D01*
X2235772Y2047168D01*
X2238795Y2039871D01*
X2243604Y2033604D01*
X2249871Y2028795D01*
X2257168Y2025772D01*
X2265000Y2024741D01*
X2272832Y2025772D01*
X2280129Y2028795D01*
X2286396Y2033604D01*
X2291205Y2039871D01*
X2294228Y2047168D01*
X2295259Y2055000D01*
X2294228Y2062832D01*
X2291205Y2070129D01*
X2286396Y2076396D01*
X2280129Y2081205D01*
X2272832Y2084228D01*
X2265000Y2085259D01*
D02*
G37*
G36*
X1960000Y2045259D02*
X1952168Y2044228D01*
X1944871Y2041205D01*
X1938604Y2036396D01*
X1933795Y2030129D01*
X1930772Y2022832D01*
X1929741Y2015000D01*
X1930772Y2007168D01*
X1933795Y1999871D01*
X1938604Y1993604D01*
X1944871Y1988795D01*
X1952168Y1985772D01*
X1960000Y1984741D01*
X1967832Y1985772D01*
X1975129Y1988795D01*
X1981396Y1993604D01*
X1986205Y1999871D01*
X1989228Y2007168D01*
X1990259Y2015000D01*
X1989228Y2022832D01*
X1986205Y2030129D01*
X1981396Y2036396D01*
X1975129Y2041205D01*
X1967832Y2044228D01*
X1960000Y2045259D01*
D02*
G37*
G36*
X2935000Y2010259D02*
X2927168Y2009228D01*
X2919871Y2006205D01*
X2913604Y2001396D01*
X2908795Y1995129D01*
X2905772Y1987832D01*
X2904741Y1980000D01*
X2905772Y1972168D01*
X2908795Y1964871D01*
X2913604Y1958604D01*
X2919871Y1953795D01*
X2927168Y1950772D01*
X2935000Y1949741D01*
X2942832Y1950772D01*
X2950129Y1953795D01*
X2956396Y1958604D01*
X2961205Y1964871D01*
X2964228Y1972168D01*
X2965259Y1980000D01*
X2964228Y1987832D01*
X2961205Y1995129D01*
X2956396Y2001396D01*
X2950129Y2006205D01*
X2942832Y2009228D01*
X2935000Y2010259D01*
D02*
G37*
G36*
X1680000Y2000259D02*
X1672168Y1999228D01*
X1664871Y1996205D01*
X1658604Y1991396D01*
X1653795Y1985129D01*
X1650772Y1977832D01*
X1649741Y1970000D01*
X1650772Y1962168D01*
X1653795Y1954871D01*
X1658604Y1948604D01*
X1664871Y1943795D01*
X1672168Y1940772D01*
X1680000Y1939741D01*
X1687832Y1940772D01*
X1695129Y1943795D01*
X1701396Y1948604D01*
X1706205Y1954871D01*
X1709228Y1962168D01*
X1710259Y1970000D01*
X1709228Y1977832D01*
X1706205Y1985129D01*
X1701396Y1991396D01*
X1695129Y1996205D01*
X1687832Y1999228D01*
X1680000Y2000259D01*
D02*
G37*
G36*
X2025000Y1985259D02*
X2017168Y1984228D01*
X2009871Y1981205D01*
X2003604Y1976396D01*
X1998795Y1970129D01*
X1995772Y1962832D01*
X1994741Y1955000D01*
X1995772Y1947168D01*
X1998795Y1939871D01*
X2003604Y1933604D01*
X2009871Y1928795D01*
X2017168Y1925772D01*
X2025000Y1924741D01*
X2032832Y1925772D01*
X2040129Y1928795D01*
X2046396Y1933604D01*
X2051205Y1939871D01*
X2054228Y1947168D01*
X2055259Y1955000D01*
X2054228Y1962832D01*
X2051205Y1970129D01*
X2046396Y1976396D01*
X2040129Y1981205D01*
X2032832Y1984228D01*
X2025000Y1985259D01*
D02*
G37*
G36*
X2405000Y1950259D02*
X2397168Y1949228D01*
X2389871Y1946205D01*
X2383604Y1941396D01*
X2378795Y1935129D01*
X2375772Y1927832D01*
X2375114Y1922831D01*
X2375021Y1922131D01*
X2369979D01*
X2369886Y1922831D01*
X2369228Y1927832D01*
X2366205Y1935129D01*
X2361396Y1941396D01*
X2355129Y1946205D01*
X2347832Y1949228D01*
X2340000Y1950259D01*
X2332168Y1949228D01*
X2324871Y1946205D01*
X2318604Y1941396D01*
X2313795Y1935129D01*
X2310772Y1927832D01*
X2309741Y1920000D01*
X2310772Y1912168D01*
X2313795Y1904871D01*
X2318604Y1898604D01*
X2324706Y1893921D01*
Y1855000D01*
X2325870Y1849147D01*
X2329186Y1844186D01*
X2364706Y1808665D01*
Y580000D01*
X2365870Y574147D01*
X2369186Y569186D01*
X2409706Y528665D01*
Y474381D01*
X2404706Y473387D01*
X2400760Y482913D01*
X2393478Y492403D01*
X2383987Y499686D01*
X2372935Y504264D01*
X2361075Y505825D01*
X2349214Y504264D01*
X2338162Y499686D01*
X2328671Y492403D01*
X2321389Y482913D01*
X2316811Y471860D01*
X2315250Y460000D01*
X2316811Y448140D01*
X2321389Y437087D01*
X2328671Y427597D01*
X2338162Y420314D01*
X2349214Y415736D01*
X2361075Y414175D01*
X2372935Y415736D01*
X2383987Y420314D01*
X2393478Y427597D01*
X2400760Y437087D01*
X2404706Y446613D01*
X2409706Y445619D01*
Y280260D01*
X2380554Y251108D01*
X2372935Y254264D01*
X2361075Y255825D01*
X2349214Y254264D01*
X2338162Y249686D01*
X2328671Y242403D01*
X2321389Y232912D01*
X2316811Y221860D01*
X2315250Y210000D01*
X2316811Y198140D01*
X2321389Y187088D01*
X2328671Y177597D01*
X2338162Y170314D01*
X2349214Y165736D01*
X2361075Y164175D01*
X2372935Y165736D01*
X2383987Y170314D01*
X2393478Y177597D01*
X2400760Y187088D01*
X2405338Y198140D01*
X2406900Y210000D01*
X2405338Y221860D01*
X2402182Y229479D01*
X2435814Y263111D01*
X2439130Y268073D01*
X2439300Y268927D01*
X2442535Y270045D01*
X2444642Y270158D01*
X2485321Y229479D01*
X2482166Y221860D01*
X2480604Y210000D01*
X2482166Y198140D01*
X2486744Y187088D01*
X2494026Y177597D01*
X2503517Y170314D01*
X2514569Y165736D01*
X2526429Y164175D01*
X2538289Y165736D01*
X2549342Y170314D01*
X2558832Y177597D01*
X2566115Y187088D01*
X2570693Y198140D01*
X2572254Y210000D01*
X2570693Y221860D01*
X2566115Y232912D01*
X2558832Y242403D01*
X2549342Y249686D01*
X2538289Y254264D01*
X2526429Y255825D01*
X2514569Y254264D01*
X2506950Y251108D01*
X2470294Y287764D01*
Y545000D01*
X2469130Y550853D01*
X2465814Y555814D01*
X2420294Y601335D01*
Y646544D01*
X2424913Y648458D01*
X2584706Y488665D01*
Y301390D01*
X2585870Y295537D01*
X2589186Y290575D01*
X2650282Y229479D01*
X2647126Y221860D01*
X2645565Y210000D01*
X2647126Y198140D01*
X2651704Y187088D01*
X2658986Y177597D01*
X2668477Y170314D01*
X2679529Y165736D01*
X2691390Y164175D01*
X2703250Y165736D01*
X2714302Y170314D01*
X2723793Y177597D01*
X2731075Y187088D01*
X2735653Y198140D01*
X2737215Y210000D01*
X2735653Y221860D01*
X2731075Y232912D01*
X2723793Y242403D01*
X2714302Y249686D01*
X2703250Y254264D01*
X2691390Y255825D01*
X2679529Y254264D01*
X2671911Y251108D01*
X2615294Y307725D01*
Y495000D01*
X2614130Y500853D01*
X2610814Y505814D01*
X2440294Y676335D01*
Y1803665D01*
X2465814Y1829186D01*
X2469130Y1834147D01*
X2470294Y1840000D01*
Y1858921D01*
X2476396Y1863604D01*
X2481205Y1869871D01*
X2484228Y1877168D01*
X2485259Y1885000D01*
X2484228Y1892832D01*
X2481205Y1900129D01*
X2476396Y1906396D01*
X2470129Y1911205D01*
X2462832Y1914228D01*
X2455000Y1915259D01*
X2447168Y1914228D01*
X2439871Y1911205D01*
X2438847Y1910420D01*
X2436978Y1911127D01*
X2434376Y1913291D01*
X2435259Y1920000D01*
X2434228Y1927832D01*
X2431205Y1935129D01*
X2426396Y1941396D01*
X2420129Y1946205D01*
X2412832Y1949228D01*
X2405000Y1950259D01*
D02*
G37*
G36*
X1950000Y1965259D02*
X1942168Y1964228D01*
X1934871Y1961205D01*
X1928604Y1956396D01*
X1923795Y1950129D01*
X1920772Y1942832D01*
X1919741Y1935000D01*
X1920772Y1927168D01*
X1923795Y1919871D01*
X1928604Y1913604D01*
X1934871Y1908795D01*
X1942168Y1905772D01*
X1950000Y1904741D01*
X1957832Y1905772D01*
X1965129Y1908795D01*
X1971396Y1913604D01*
X1976205Y1919871D01*
X1979228Y1927168D01*
X1980259Y1935000D01*
X1979228Y1942832D01*
X1976205Y1950129D01*
X1971396Y1956396D01*
X1965129Y1961205D01*
X1957832Y1964228D01*
X1950000Y1965259D01*
D02*
G37*
G36*
X1420000Y1960259D02*
X1412168Y1959228D01*
X1404871Y1956205D01*
X1398604Y1951396D01*
X1393795Y1945129D01*
X1390772Y1937832D01*
X1389741Y1930000D01*
X1390772Y1922168D01*
X1393795Y1914871D01*
X1398604Y1908604D01*
X1404871Y1903795D01*
X1412168Y1900772D01*
X1420000Y1899741D01*
X1427832Y1900772D01*
X1435129Y1903795D01*
X1441396Y1908604D01*
X1446205Y1914871D01*
X1449228Y1922168D01*
X1450259Y1930000D01*
X1449228Y1937832D01*
X1446205Y1945129D01*
X1441396Y1951396D01*
X1435129Y1956205D01*
X1427832Y1959228D01*
X1420000Y1960259D01*
D02*
G37*
G36*
X2085000Y1910259D02*
X2077168Y1909228D01*
X2069871Y1906205D01*
X2063604Y1901396D01*
X2058795Y1895129D01*
X2055772Y1887832D01*
X2055161Y1883188D01*
X2049933Y1881787D01*
X2046396Y1886396D01*
X2040129Y1891205D01*
X2032832Y1894228D01*
X2025000Y1895259D01*
X2017168Y1894228D01*
X2009871Y1891205D01*
X2003604Y1886396D01*
X1998795Y1880129D01*
X1995772Y1872832D01*
X1994741Y1865000D01*
X1995772Y1857168D01*
X1998795Y1849871D01*
X2003604Y1843604D01*
X2009871Y1838795D01*
X2017168Y1835772D01*
X2025000Y1834741D01*
X2032832Y1835772D01*
X2040129Y1838795D01*
X2046396Y1843604D01*
X2051205Y1849871D01*
X2054228Y1857168D01*
X2054839Y1861812D01*
X2060067Y1863213D01*
X2063604Y1858604D01*
X2069871Y1853795D01*
X2077168Y1850772D01*
X2085000Y1849741D01*
X2092832Y1850772D01*
X2100129Y1853795D01*
X2106396Y1858604D01*
X2111205Y1864871D01*
X2114228Y1872168D01*
X2115259Y1880000D01*
X2114228Y1887832D01*
X2111205Y1895129D01*
X2106396Y1901396D01*
X2100129Y1906205D01*
X2092832Y1909228D01*
X2085000Y1910259D01*
D02*
G37*
G36*
X1600000Y1925259D02*
X1592168Y1924228D01*
X1584871Y1921205D01*
X1578604Y1916396D01*
X1573795Y1910129D01*
X1570772Y1902832D01*
X1569741Y1895000D01*
X1570772Y1887168D01*
X1573795Y1879871D01*
X1578604Y1873604D01*
X1584871Y1868795D01*
X1592168Y1865772D01*
X1600000Y1864741D01*
X1607832Y1865772D01*
X1615129Y1868795D01*
X1621396Y1873604D01*
X1626205Y1879871D01*
X1629228Y1887168D01*
X1630259Y1895000D01*
X1629228Y1902832D01*
X1626205Y1910129D01*
X1621396Y1916396D01*
X1615129Y1921205D01*
X1607832Y1924228D01*
X1600000Y1925259D01*
D02*
G37*
G36*
X2270000Y1950259D02*
X2262168Y1949228D01*
X2254871Y1946205D01*
X2248604Y1941396D01*
X2243795Y1935129D01*
X2240772Y1927832D01*
X2239741Y1920000D01*
X2240772Y1912168D01*
X2243795Y1904871D01*
X2248604Y1898604D01*
X2254706Y1893921D01*
Y1808780D01*
X2249706Y1807083D01*
X2246396Y1811396D01*
X2240129Y1816205D01*
X2232832Y1819228D01*
X2225000Y1820259D01*
X2217168Y1819228D01*
X2209871Y1816205D01*
X2203604Y1811396D01*
X2200507Y1807360D01*
X2200288Y1807247D01*
X2194712D01*
X2194493Y1807360D01*
X2191396Y1811396D01*
X2185129Y1816205D01*
X2177832Y1819228D01*
X2170000Y1820259D01*
X2162168Y1819228D01*
X2154871Y1816205D01*
X2148604Y1811396D01*
X2143795Y1805129D01*
X2140772Y1797832D01*
X2139741Y1790000D01*
X2140745Y1782374D01*
X2093665Y1735294D01*
X2037218D01*
X2031366Y1734130D01*
X2026404Y1730814D01*
X1869186Y1573596D01*
X1865870Y1568634D01*
X1864706Y1562782D01*
Y1103346D01*
X1863359Y1102681D01*
X1859706Y1101380D01*
X1852832Y1104228D01*
X1845000Y1105259D01*
X1837168Y1104228D01*
X1829871Y1101205D01*
X1823604Y1096396D01*
X1818795Y1090129D01*
X1815772Y1082832D01*
X1814741Y1075000D01*
X1815772Y1067168D01*
X1818795Y1059871D01*
X1823604Y1053604D01*
X1829871Y1048795D01*
X1837168Y1045772D01*
X1845000Y1044741D01*
X1849706Y1045361D01*
X1854706Y1041520D01*
Y531079D01*
X1848604Y526396D01*
X1843795Y520130D01*
X1840772Y512832D01*
X1839741Y505000D01*
X1840772Y497168D01*
X1843795Y489871D01*
X1848604Y483604D01*
X1854870Y478795D01*
X1862168Y475772D01*
X1870000Y474741D01*
X1877832Y475772D01*
X1885129Y478795D01*
X1891396Y483604D01*
X1896205Y489871D01*
X1899228Y497168D01*
X1900259Y505000D01*
X1899228Y512832D01*
X1896205Y520130D01*
X1891396Y526396D01*
X1885294Y531079D01*
Y1044168D01*
X1890814Y1049688D01*
X1894130Y1054650D01*
X1894706Y1057547D01*
X1899706Y1057055D01*
Y555492D01*
X1898871Y549147D01*
X1899902Y541316D01*
X1902925Y534018D01*
X1907733Y527751D01*
X1914000Y522942D01*
X1921298Y519919D01*
X1929130Y518888D01*
X1936961Y519919D01*
X1944259Y522942D01*
X1950526Y527751D01*
X1955335Y534018D01*
X1958358Y541316D01*
X1959389Y549147D01*
X1958358Y556979D01*
X1955335Y564277D01*
X1950526Y570544D01*
X1944259Y575352D01*
X1936961Y578375D01*
X1930294Y579253D01*
Y1081654D01*
X1931641Y1082319D01*
X1935294Y1083620D01*
X1942168Y1080772D01*
X1945000Y1080399D01*
Y1110000D01*
Y1139601D01*
X1942168Y1139228D01*
X1935294Y1136380D01*
X1931641Y1137681D01*
X1930294Y1138346D01*
Y1563162D01*
X1951022Y1583891D01*
X1952444Y1583408D01*
X1955947Y1581745D01*
X1958795Y1574871D01*
X1963604Y1568604D01*
X1969871Y1563795D01*
X1977168Y1560772D01*
X1985000Y1559741D01*
X1992626Y1560745D01*
X2219706Y1333665D01*
Y621335D01*
X2191812Y593441D01*
X2184186Y594444D01*
X2176354Y593413D01*
X2169056Y590391D01*
X2162789Y585582D01*
X2157981Y579315D01*
X2154958Y572017D01*
X2153927Y564186D01*
X2154958Y556354D01*
X2157981Y549056D01*
X2162789Y542789D01*
X2169056Y537981D01*
X2176354Y534958D01*
X2184186Y533927D01*
X2192017Y534958D01*
X2199315Y537981D01*
X2205582Y542789D01*
X2210391Y549056D01*
X2213414Y556354D01*
X2214445Y564186D01*
X2213441Y571812D01*
X2245814Y604186D01*
X2249130Y609147D01*
X2249706Y612045D01*
X2254706Y611553D01*
Y290221D01*
X2215593Y251108D01*
X2207974Y254264D01*
X2196114Y255825D01*
X2184254Y254264D01*
X2173202Y249686D01*
X2163711Y242403D01*
X2156428Y232912D01*
X2151851Y221860D01*
X2150289Y210000D01*
X2151851Y198140D01*
X2156428Y187088D01*
X2163711Y177597D01*
X2173202Y170314D01*
X2184254Y165736D01*
X2196114Y164175D01*
X2207974Y165736D01*
X2219027Y170314D01*
X2228517Y177597D01*
X2235800Y187088D01*
X2240378Y198140D01*
X2241939Y210000D01*
X2240378Y221860D01*
X2237222Y229479D01*
X2280814Y273072D01*
X2284130Y278033D01*
X2285294Y283886D01*
Y770473D01*
X2290294Y770801D01*
X2290772Y767168D01*
X2293795Y759871D01*
X2298604Y753604D01*
X2304871Y748795D01*
X2312168Y745772D01*
X2315000Y745399D01*
Y775000D01*
Y804601D01*
X2312168Y804228D01*
X2304871Y801205D01*
X2298604Y796396D01*
X2293795Y790129D01*
X2290772Y782832D01*
X2290294Y779199D01*
X2285294Y779527D01*
Y1280473D01*
X2290294Y1280801D01*
X2290772Y1277168D01*
X2293795Y1269871D01*
X2298604Y1263604D01*
X2304871Y1258795D01*
X2312168Y1255772D01*
X2315000Y1255399D01*
Y1285000D01*
Y1314601D01*
X2312168Y1314228D01*
X2304871Y1311205D01*
X2298604Y1306396D01*
X2293795Y1300129D01*
X2290772Y1292832D01*
X2290294Y1289199D01*
X2285294Y1289527D01*
Y1441654D01*
X2286641Y1442319D01*
X2290294Y1443620D01*
X2297168Y1440772D01*
X2300000Y1440399D01*
Y1470000D01*
Y1499601D01*
X2297168Y1499228D01*
X2290294Y1496380D01*
X2286641Y1497681D01*
X2285294Y1498346D01*
Y1893921D01*
X2291396Y1898604D01*
X2296205Y1904871D01*
X2299228Y1912168D01*
X2300259Y1920000D01*
X2299228Y1927832D01*
X2296205Y1935129D01*
X2291396Y1941396D01*
X2285129Y1946205D01*
X2277832Y1949228D01*
X2270000Y1950259D01*
D02*
G37*
G36*
X3170000Y1824601D02*
Y1800000D01*
X3194601D01*
X3194228Y1802832D01*
X3191205Y1810129D01*
X3186396Y1816396D01*
X3180129Y1821205D01*
X3172832Y1824228D01*
X3170000Y1824601D01*
D02*
G37*
G36*
X3160000D02*
X3157168Y1824228D01*
X3149871Y1821205D01*
X3143604Y1816396D01*
X3138795Y1810129D01*
X3135772Y1802832D01*
X3135399Y1800000D01*
X3160000D01*
Y1824601D01*
D02*
G37*
G36*
X2330000D02*
Y1800000D01*
X2354601D01*
X2354228Y1802832D01*
X2351205Y1810129D01*
X2346396Y1816396D01*
X2340129Y1821205D01*
X2332832Y1824228D01*
X2330000Y1824601D01*
D02*
G37*
G36*
X2320000D02*
X2317168Y1824228D01*
X2309871Y1821205D01*
X2303604Y1816396D01*
X2298795Y1810129D01*
X2295772Y1802832D01*
X2295399Y1800000D01*
X2320000D01*
Y1824601D01*
D02*
G37*
G36*
X1485000D02*
Y1800000D01*
X1509601D01*
X1509228Y1802832D01*
X1506205Y1810129D01*
X1501396Y1816396D01*
X1495129Y1821205D01*
X1487832Y1824228D01*
X1485000Y1824601D01*
D02*
G37*
G36*
X1475000D02*
X1472168Y1824228D01*
X1464871Y1821205D01*
X1458604Y1816396D01*
X1453795Y1810129D01*
X1450772Y1802832D01*
X1450399Y1800000D01*
X1475000D01*
Y1824601D01*
D02*
G37*
G36*
X3194601Y1790000D02*
X3170000D01*
Y1765399D01*
X3172832Y1765772D01*
X3180129Y1768795D01*
X3186396Y1773604D01*
X3191205Y1779871D01*
X3194228Y1787168D01*
X3194601Y1790000D01*
D02*
G37*
G36*
X3160000D02*
X3135399D01*
X3135772Y1787168D01*
X3138795Y1779871D01*
X3143604Y1773604D01*
X3149871Y1768795D01*
X3157168Y1765772D01*
X3160000Y1765399D01*
Y1790000D01*
D02*
G37*
G36*
X2354601D02*
X2330000D01*
Y1765399D01*
X2332832Y1765772D01*
X2340129Y1768795D01*
X2346396Y1773604D01*
X2351205Y1779871D01*
X2354228Y1787168D01*
X2354601Y1790000D01*
D02*
G37*
G36*
X2320000D02*
X2295399D01*
X2295772Y1787168D01*
X2298795Y1779871D01*
X2303604Y1773604D01*
X2309871Y1768795D01*
X2317168Y1765772D01*
X2320000Y1765399D01*
Y1790000D01*
D02*
G37*
G36*
X1509601D02*
X1485000D01*
Y1765399D01*
X1487832Y1765772D01*
X1495129Y1768795D01*
X1501396Y1773604D01*
X1506205Y1779871D01*
X1509228Y1787168D01*
X1509601Y1790000D01*
D02*
G37*
G36*
X1475000D02*
X1450399D01*
X1450772Y1787168D01*
X1453795Y1779871D01*
X1458604Y1773604D01*
X1464871Y1768795D01*
X1472168Y1765772D01*
X1475000Y1765399D01*
Y1790000D01*
D02*
G37*
G36*
X1798458Y1811801D02*
X1790627Y1810770D01*
X1783329Y1807747D01*
X1777062Y1802938D01*
X1772253Y1796671D01*
X1769230Y1789373D01*
X1768199Y1781542D01*
X1769230Y1773710D01*
X1772253Y1766412D01*
X1777062Y1760145D01*
X1783329Y1755337D01*
X1790627Y1752314D01*
X1798458Y1751283D01*
X1806290Y1752314D01*
X1813588Y1755337D01*
X1819855Y1760145D01*
X1824663Y1766412D01*
X1827686Y1773710D01*
X1828717Y1781542D01*
X1827686Y1789373D01*
X1824663Y1796671D01*
X1819855Y1802938D01*
X1813588Y1807747D01*
X1806290Y1810770D01*
X1798458Y1811801D01*
D02*
G37*
G36*
X3440000Y1695259D02*
X3432168Y1694228D01*
X3424871Y1691205D01*
X3418604Y1686396D01*
X3413795Y1680129D01*
X3410772Y1672832D01*
X3409741Y1665000D01*
X3410772Y1657168D01*
X3413795Y1649871D01*
X3418604Y1643604D01*
X3424871Y1638795D01*
X3432168Y1635772D01*
X3440000Y1634741D01*
X3447832Y1635772D01*
X3455129Y1638795D01*
X3461396Y1643604D01*
X3466205Y1649871D01*
X3469228Y1657168D01*
X3470259Y1665000D01*
X3469228Y1672832D01*
X3466205Y1680129D01*
X3461396Y1686396D01*
X3455129Y1691205D01*
X3447832Y1694228D01*
X3440000Y1695259D01*
D02*
G37*
G36*
X2600000D02*
X2592168Y1694228D01*
X2584871Y1691205D01*
X2578604Y1686396D01*
X2573795Y1680129D01*
X2570772Y1672832D01*
X2569741Y1665000D01*
X2570772Y1657168D01*
X2573795Y1649871D01*
X2578604Y1643604D01*
X2584871Y1638795D01*
X2592168Y1635772D01*
X2600000Y1634741D01*
X2607832Y1635772D01*
X2615129Y1638795D01*
X2621396Y1643604D01*
X2626205Y1649871D01*
X2629228Y1657168D01*
X2630259Y1665000D01*
X2629228Y1672832D01*
X2626205Y1680129D01*
X2621396Y1686396D01*
X2615129Y1691205D01*
X2607832Y1694228D01*
X2600000Y1695259D01*
D02*
G37*
G36*
X1740000D02*
X1732168Y1694228D01*
X1724871Y1691205D01*
X1718604Y1686396D01*
X1713795Y1680129D01*
X1710772Y1672832D01*
X1709741Y1665000D01*
X1710772Y1657168D01*
X1713795Y1649871D01*
X1718604Y1643604D01*
X1724871Y1638795D01*
X1732168Y1635772D01*
X1740000Y1634741D01*
X1747832Y1635772D01*
X1755129Y1638795D01*
X1761396Y1643604D01*
X1766205Y1649871D01*
X1769228Y1657168D01*
X1770259Y1665000D01*
X1769228Y1672832D01*
X1766205Y1680129D01*
X1761396Y1686396D01*
X1755129Y1691205D01*
X1747832Y1694228D01*
X1740000Y1695259D01*
D02*
G37*
G36*
X2310000Y1499601D02*
Y1475000D01*
X2334601D01*
X2334228Y1477832D01*
X2331205Y1485129D01*
X2326396Y1491396D01*
X2320129Y1496205D01*
X2312832Y1499228D01*
X2310000Y1499601D01*
D02*
G37*
G36*
X2334601Y1465000D02*
X2310000D01*
Y1440399D01*
X2312832Y1440772D01*
X2320129Y1443795D01*
X2326396Y1448604D01*
X2331205Y1454871D01*
X2334228Y1462168D01*
X2334601Y1465000D01*
D02*
G37*
G36*
X1785000Y1395259D02*
X1777168Y1394228D01*
X1769871Y1391205D01*
X1763604Y1386396D01*
X1758795Y1380129D01*
X1755772Y1372832D01*
X1754741Y1365000D01*
X1755772Y1357168D01*
X1758795Y1349871D01*
X1763604Y1343604D01*
X1769871Y1338795D01*
X1777168Y1335772D01*
X1785000Y1334741D01*
X1792832Y1335772D01*
X1800129Y1338795D01*
X1806396Y1343604D01*
X1811205Y1349871D01*
X1814228Y1357168D01*
X1815259Y1365000D01*
X1814228Y1372832D01*
X1811205Y1380129D01*
X1806396Y1386396D01*
X1800129Y1391205D01*
X1792832Y1394228D01*
X1785000Y1395259D01*
D02*
G37*
G36*
X3165000Y1314601D02*
Y1290000D01*
X3189601D01*
X3189228Y1292832D01*
X3186205Y1300129D01*
X3181396Y1306396D01*
X3175129Y1311205D01*
X3167832Y1314228D01*
X3165000Y1314601D01*
D02*
G37*
G36*
X3155000D02*
X3152168Y1314228D01*
X3144871Y1311205D01*
X3138604Y1306396D01*
X3133795Y1300129D01*
X3130772Y1292832D01*
X3130399Y1290000D01*
X3155000D01*
Y1314601D01*
D02*
G37*
G36*
X2325000D02*
Y1290000D01*
X2349601D01*
X2349228Y1292832D01*
X2346205Y1300129D01*
X2341396Y1306396D01*
X2335129Y1311205D01*
X2327832Y1314228D01*
X2325000Y1314601D01*
D02*
G37*
G36*
X1480000D02*
Y1290000D01*
X1504601D01*
X1504228Y1292832D01*
X1501205Y1300129D01*
X1496396Y1306396D01*
X1490129Y1311205D01*
X1482832Y1314228D01*
X1480000Y1314601D01*
D02*
G37*
G36*
X1470000D02*
X1467168Y1314228D01*
X1459871Y1311205D01*
X1453604Y1306396D01*
X1448795Y1300129D01*
X1445772Y1292832D01*
X1445399Y1290000D01*
X1470000D01*
Y1314601D01*
D02*
G37*
G36*
X3189601Y1280000D02*
X3165000D01*
Y1255399D01*
X3167832Y1255772D01*
X3175129Y1258795D01*
X3181396Y1263604D01*
X3186205Y1269871D01*
X3189228Y1277168D01*
X3189601Y1280000D01*
D02*
G37*
G36*
X3155000D02*
X3130399D01*
X3130772Y1277168D01*
X3133795Y1269871D01*
X3138604Y1263604D01*
X3144871Y1258795D01*
X3152168Y1255772D01*
X3155000Y1255399D01*
Y1280000D01*
D02*
G37*
G36*
X2349601D02*
X2325000D01*
Y1255399D01*
X2327832Y1255772D01*
X2335129Y1258795D01*
X2341396Y1263604D01*
X2346205Y1269871D01*
X2349228Y1277168D01*
X2349601Y1280000D01*
D02*
G37*
G36*
X1504601D02*
X1480000D01*
Y1255399D01*
X1482832Y1255772D01*
X1490129Y1258795D01*
X1496396Y1263604D01*
X1501205Y1269871D01*
X1504228Y1277168D01*
X1504601Y1280000D01*
D02*
G37*
G36*
X1470000D02*
X1445399D01*
X1445772Y1277168D01*
X1448795Y1269871D01*
X1453604Y1263604D01*
X1459871Y1258795D01*
X1467168Y1255772D01*
X1470000Y1255399D01*
Y1280000D01*
D02*
G37*
G36*
X3435000Y1185259D02*
X3427168Y1184228D01*
X3419871Y1181205D01*
X3413604Y1176396D01*
X3408795Y1170129D01*
X3405772Y1162832D01*
X3404741Y1155000D01*
X3405772Y1147168D01*
X3408795Y1139871D01*
X3413604Y1133604D01*
X3419871Y1128795D01*
X3427168Y1125772D01*
X3435000Y1124741D01*
X3442832Y1125772D01*
X3450129Y1128795D01*
X3456396Y1133604D01*
X3461205Y1139871D01*
X3464228Y1147168D01*
X3465259Y1155000D01*
X3464228Y1162832D01*
X3461205Y1170129D01*
X3456396Y1176396D01*
X3450129Y1181205D01*
X3442832Y1184228D01*
X3435000Y1185259D01*
D02*
G37*
G36*
X2595000D02*
X2587168Y1184228D01*
X2579871Y1181205D01*
X2573604Y1176396D01*
X2568795Y1170129D01*
X2565772Y1162832D01*
X2564741Y1155000D01*
X2565772Y1147168D01*
X2568795Y1139871D01*
X2573604Y1133604D01*
X2579871Y1128795D01*
X2587168Y1125772D01*
X2595000Y1124741D01*
X2602832Y1125772D01*
X2610129Y1128795D01*
X2616396Y1133604D01*
X2621205Y1139871D01*
X2624228Y1147168D01*
X2625259Y1155000D01*
X2624228Y1162832D01*
X2621205Y1170129D01*
X2616396Y1176396D01*
X2610129Y1181205D01*
X2602832Y1184228D01*
X2595000Y1185259D01*
D02*
G37*
G36*
X1750000D02*
X1742168Y1184228D01*
X1734871Y1181205D01*
X1728604Y1176396D01*
X1723795Y1170129D01*
X1720772Y1162832D01*
X1719741Y1155000D01*
X1720772Y1147168D01*
X1723795Y1139871D01*
X1728604Y1133604D01*
X1734871Y1128795D01*
X1742168Y1125772D01*
X1750000Y1124741D01*
X1757832Y1125772D01*
X1765129Y1128795D01*
X1771396Y1133604D01*
X1776205Y1139871D01*
X1779228Y1147168D01*
X1780259Y1155000D01*
X1779228Y1162832D01*
X1776205Y1170129D01*
X1771396Y1176396D01*
X1765129Y1181205D01*
X1757832Y1184228D01*
X1750000Y1185259D01*
D02*
G37*
G36*
X1955000Y1139601D02*
Y1115000D01*
X1979601D01*
X1979228Y1117832D01*
X1976205Y1125129D01*
X1971396Y1131396D01*
X1965129Y1136205D01*
X1957832Y1139228D01*
X1955000Y1139601D01*
D02*
G37*
G36*
X1979601Y1105000D02*
X1955000D01*
Y1080399D01*
X1957832Y1080772D01*
X1965129Y1083795D01*
X1971396Y1088604D01*
X1976205Y1094871D01*
X1979228Y1102168D01*
X1979601Y1105000D01*
D02*
G37*
G36*
X3285000Y1039601D02*
Y1015000D01*
X3309601D01*
X3309228Y1017832D01*
X3306205Y1025129D01*
X3301396Y1031396D01*
X3295129Y1036205D01*
X3287832Y1039228D01*
X3285000Y1039601D01*
D02*
G37*
G36*
X3275000D02*
X3272168Y1039228D01*
X3264871Y1036205D01*
X3258604Y1031396D01*
X3253795Y1025129D01*
X3250772Y1017832D01*
X3250399Y1015000D01*
X3275000D01*
Y1039601D01*
D02*
G37*
G36*
X3309601Y1005000D02*
X3285000D01*
Y980399D01*
X3287832Y980772D01*
X3295129Y983795D01*
X3301396Y988604D01*
X3306205Y994871D01*
X3309228Y1002168D01*
X3309601Y1005000D01*
D02*
G37*
G36*
X3275000D02*
X3250399D01*
X3250772Y1002168D01*
X3253795Y994871D01*
X3258604Y988604D01*
X3264871Y983795D01*
X3272168Y980772D01*
X3275000Y980399D01*
Y1005000D01*
D02*
G37*
G36*
X2040000Y1020259D02*
X2032168Y1019228D01*
X2024871Y1016205D01*
X2018604Y1011396D01*
X2013795Y1005129D01*
X2010772Y997832D01*
X2009741Y990000D01*
X2010772Y982168D01*
X2013795Y974871D01*
X2018604Y968604D01*
X2024871Y963795D01*
X2032168Y960772D01*
X2040000Y959741D01*
X2047832Y960772D01*
X2055129Y963795D01*
X2061396Y968604D01*
X2066205Y974871D01*
X2069228Y982168D01*
X2070259Y990000D01*
X2069228Y997832D01*
X2066205Y1005129D01*
X2061396Y1011396D01*
X2055129Y1016205D01*
X2047832Y1019228D01*
X2040000Y1020259D01*
D02*
G37*
G36*
X2995000Y1010259D02*
X2987168Y1009228D01*
X2979871Y1006205D01*
X2973604Y1001396D01*
X2968795Y995129D01*
X2965772Y987832D01*
X2964741Y980000D01*
X2965772Y972168D01*
X2968795Y964871D01*
X2973604Y958604D01*
X2979871Y953795D01*
X2987168Y950772D01*
X2995000Y949741D01*
X3002832Y950772D01*
X3010129Y953795D01*
X3016396Y958604D01*
X3021205Y964871D01*
X3024228Y972168D01*
X3025259Y980000D01*
X3024228Y987832D01*
X3021205Y995129D01*
X3016396Y1001396D01*
X3010129Y1006205D01*
X3002832Y1009228D01*
X2995000Y1010259D01*
D02*
G37*
G36*
Y895259D02*
X2987168Y894228D01*
X2979871Y891205D01*
X2973604Y886396D01*
X2968795Y880129D01*
X2965772Y872832D01*
X2964741Y865000D01*
X2965772Y857168D01*
X2968795Y849871D01*
X2973604Y843604D01*
X2979871Y838795D01*
X2987168Y835772D01*
X2995000Y834741D01*
X3002832Y835772D01*
X3010129Y838795D01*
X3016396Y843604D01*
X3021205Y849871D01*
X3024228Y857168D01*
X3025259Y865000D01*
X3024228Y872832D01*
X3021205Y880129D01*
X3016396Y886396D01*
X3010129Y891205D01*
X3002832Y894228D01*
X2995000Y895259D01*
D02*
G37*
G36*
X3165000Y804601D02*
Y780000D01*
X3189601D01*
X3189228Y782832D01*
X3186205Y790129D01*
X3181396Y796396D01*
X3175129Y801205D01*
X3167832Y804228D01*
X3165000Y804601D01*
D02*
G37*
G36*
X3155000D02*
X3152168Y804228D01*
X3144871Y801205D01*
X3138604Y796396D01*
X3133795Y790129D01*
X3130772Y782832D01*
X3130399Y780000D01*
X3155000D01*
Y804601D01*
D02*
G37*
G36*
X2325000D02*
Y780000D01*
X2349601D01*
X2349228Y782832D01*
X2346205Y790129D01*
X2341396Y796396D01*
X2335129Y801205D01*
X2327832Y804228D01*
X2325000Y804601D01*
D02*
G37*
G36*
X1480000D02*
Y780000D01*
X1504601D01*
X1504228Y782832D01*
X1501205Y790129D01*
X1496396Y796396D01*
X1490129Y801205D01*
X1482832Y804228D01*
X1480000Y804601D01*
D02*
G37*
G36*
X1470000D02*
X1467168Y804228D01*
X1459871Y801205D01*
X1453604Y796396D01*
X1448795Y790129D01*
X1445772Y782832D01*
X1445399Y780000D01*
X1470000D01*
Y804601D01*
D02*
G37*
G36*
X3189601Y770000D02*
X3165000D01*
Y745399D01*
X3167832Y745772D01*
X3175129Y748795D01*
X3181396Y753604D01*
X3186205Y759871D01*
X3189228Y767168D01*
X3189601Y770000D01*
D02*
G37*
G36*
X3155000D02*
X3130399D01*
X3130772Y767168D01*
X3133795Y759871D01*
X3138604Y753604D01*
X3144871Y748795D01*
X3152168Y745772D01*
X3155000Y745399D01*
Y770000D01*
D02*
G37*
G36*
X2349601D02*
X2325000D01*
Y745399D01*
X2327832Y745772D01*
X2335129Y748795D01*
X2341396Y753604D01*
X2346205Y759871D01*
X2349228Y767168D01*
X2349601Y770000D01*
D02*
G37*
G36*
X1504601D02*
X1480000D01*
Y745399D01*
X1482832Y745772D01*
X1490129Y748795D01*
X1496396Y753604D01*
X1501205Y759871D01*
X1504228Y767168D01*
X1504601Y770000D01*
D02*
G37*
G36*
X1470000D02*
X1445399D01*
X1445772Y767168D01*
X1448795Y759871D01*
X1453604Y753604D01*
X1459871Y748795D01*
X1467168Y745772D01*
X1470000Y745399D01*
Y770000D01*
D02*
G37*
G36*
X2793752Y780180D02*
X2780060Y778832D01*
X2766895Y774838D01*
X2754762Y768353D01*
X2744127Y759625D01*
X2735399Y748990D01*
X2728914Y736857D01*
X2724920Y723692D01*
X2723572Y710000D01*
X2724920Y696308D01*
X2728914Y683143D01*
X2735399Y671010D01*
X2744127Y660375D01*
X2754762Y651647D01*
X2766895Y645162D01*
X2780060Y641168D01*
X2793752Y639820D01*
X2807443Y641168D01*
X2820609Y645162D01*
X2832742Y651647D01*
X2843377Y660375D01*
X2852105Y671010D01*
X2858590Y683143D01*
X2862584Y696308D01*
X2863932Y710000D01*
X2862584Y723692D01*
X2858590Y736857D01*
X2852105Y748990D01*
X2843377Y759625D01*
X2832742Y768353D01*
X2820609Y774838D01*
X2807443Y778832D01*
X2793752Y780180D01*
D02*
G37*
G36*
X2093752D02*
X2080060Y778832D01*
X2066895Y774838D01*
X2054762Y768353D01*
X2044127Y759625D01*
X2035399Y748990D01*
X2028914Y736857D01*
X2024920Y723692D01*
X2023572Y710000D01*
X2024920Y696308D01*
X2028914Y683143D01*
X2035399Y671010D01*
X2044127Y660375D01*
X2054762Y651647D01*
X2066895Y645162D01*
X2080060Y641168D01*
X2093752Y639820D01*
X2107443Y641168D01*
X2120609Y645162D01*
X2132742Y651647D01*
X2143377Y660375D01*
X2152105Y671010D01*
X2158590Y683143D01*
X2162584Y696308D01*
X2163932Y710000D01*
X2162584Y723692D01*
X2158590Y736857D01*
X2152105Y748990D01*
X2143377Y759625D01*
X2132742Y768353D01*
X2120609Y774838D01*
X2107443Y778832D01*
X2093752Y780180D01*
D02*
G37*
G36*
X3435000Y675259D02*
X3427168Y674228D01*
X3419871Y671205D01*
X3413604Y666396D01*
X3408795Y660129D01*
X3405772Y652832D01*
X3404741Y645000D01*
X3405772Y637168D01*
X3408795Y629871D01*
X3413604Y623604D01*
X3419871Y618795D01*
X3427168Y615772D01*
X3435000Y614741D01*
X3442832Y615772D01*
X3450129Y618795D01*
X3456396Y623604D01*
X3461205Y629871D01*
X3464228Y637168D01*
X3465259Y645000D01*
X3464228Y652832D01*
X3461205Y660129D01*
X3456396Y666396D01*
X3450129Y671205D01*
X3442832Y674228D01*
X3435000Y675259D01*
D02*
G37*
G36*
X2595000D02*
X2587168Y674228D01*
X2579871Y671205D01*
X2573604Y666396D01*
X2568795Y660129D01*
X2565772Y652832D01*
X2564741Y645000D01*
X2565772Y637168D01*
X2568795Y629871D01*
X2573604Y623604D01*
X2579871Y618795D01*
X2587168Y615772D01*
X2595000Y614741D01*
X2602832Y615772D01*
X2610129Y618795D01*
X2616396Y623604D01*
X2621205Y629871D01*
X2624228Y637168D01*
X2625259Y645000D01*
X2624228Y652832D01*
X2621205Y660129D01*
X2616396Y666396D01*
X2610129Y671205D01*
X2602832Y674228D01*
X2595000Y675259D01*
D02*
G37*
G36*
X1750000D02*
X1742168Y674228D01*
X1734871Y671205D01*
X1728604Y666396D01*
X1723795Y660129D01*
X1720772Y652832D01*
X1719741Y645000D01*
X1720772Y637168D01*
X1723795Y629871D01*
X1728604Y623604D01*
X1734871Y618795D01*
X1742168Y615772D01*
X1750000Y614741D01*
X1757832Y615772D01*
X1765129Y618795D01*
X1771396Y623604D01*
X1776205Y629871D01*
X1779228Y637168D01*
X1780259Y645000D01*
X1779228Y652832D01*
X1776205Y660129D01*
X1771396Y666396D01*
X1765129Y671205D01*
X1757832Y674228D01*
X1750000Y675259D01*
D02*
G37*
G36*
X2856350Y505825D02*
X2844490Y504264D01*
X2833438Y499686D01*
X2823947Y492403D01*
X2816665Y482913D01*
X2812087Y471860D01*
X2810525Y460000D01*
X2812087Y448140D01*
X2816665Y437087D01*
X2823947Y427597D01*
X2833438Y420314D01*
X2844490Y415736D01*
X2856350Y414175D01*
X2868211Y415736D01*
X2879263Y420314D01*
X2888753Y427597D01*
X2896036Y437087D01*
X2900614Y448140D01*
X2902175Y460000D01*
X2900614Y471860D01*
X2896036Y482913D01*
X2888753Y492403D01*
X2879263Y499686D01*
X2868211Y504264D01*
X2856350Y505825D01*
D02*
G37*
G36*
X2691390D02*
X2679529Y504264D01*
X2668477Y499686D01*
X2658986Y492403D01*
X2651704Y482913D01*
X2647126Y471860D01*
X2645565Y460000D01*
X2647126Y448140D01*
X2651704Y437087D01*
X2658986Y427597D01*
X2668477Y420314D01*
X2679529Y415736D01*
X2691390Y414175D01*
X2703250Y415736D01*
X2714302Y420314D01*
X2723793Y427597D01*
X2731075Y437087D01*
X2735653Y448140D01*
X2737215Y460000D01*
X2735653Y471860D01*
X2731075Y482913D01*
X2723793Y492403D01*
X2714302Y499686D01*
X2703250Y504264D01*
X2691390Y505825D01*
D02*
G37*
G36*
X2526429D02*
X2514569Y504264D01*
X2503517Y499686D01*
X2494026Y492403D01*
X2486744Y482913D01*
X2482166Y471860D01*
X2480604Y460000D01*
X2482166Y448140D01*
X2486744Y437087D01*
X2494026Y427597D01*
X2503517Y420314D01*
X2514569Y415736D01*
X2526429Y414175D01*
X2538289Y415736D01*
X2549342Y420314D01*
X2558832Y427597D01*
X2566115Y437087D01*
X2570693Y448140D01*
X2572254Y460000D01*
X2570693Y471860D01*
X2566115Y482913D01*
X2558832Y492403D01*
X2549342Y499686D01*
X2538289Y504264D01*
X2526429Y505825D01*
D02*
G37*
G36*
X2196114D02*
X2184254Y504264D01*
X2173202Y499686D01*
X2163711Y492403D01*
X2156428Y482913D01*
X2151851Y471860D01*
X2150289Y460000D01*
X2151851Y448140D01*
X2156428Y437087D01*
X2163711Y427597D01*
X2173202Y420314D01*
X2184254Y415736D01*
X2196114Y414175D01*
X2207974Y415736D01*
X2219027Y420314D01*
X2228517Y427597D01*
X2235800Y437087D01*
X2240378Y448140D01*
X2241939Y460000D01*
X2240378Y471860D01*
X2235800Y482913D01*
X2228517Y492403D01*
X2219027Y499686D01*
X2207974Y504264D01*
X2196114Y505825D01*
D02*
G37*
G36*
X2031153D02*
X2019293Y504264D01*
X2008241Y499686D01*
X1998750Y492403D01*
X1991468Y482913D01*
X1986890Y471860D01*
X1985329Y460000D01*
X1986890Y448140D01*
X1991468Y437087D01*
X1998750Y427597D01*
X2008241Y420314D01*
X2019293Y415736D01*
X2031153Y414175D01*
X2043014Y415736D01*
X2054066Y420314D01*
X2063557Y427597D01*
X2070839Y437087D01*
X2075417Y448140D01*
X2076979Y460000D01*
X2075417Y471860D01*
X2070839Y482913D01*
X2063557Y492403D01*
X2054066Y499686D01*
X2043014Y504264D01*
X2031153Y505825D01*
D02*
G37*
G36*
X2076586Y255433D02*
X1985720D01*
Y164567D01*
X2076586D01*
Y255433D01*
D02*
G37*
G36*
X2856350Y255825D02*
X2844490Y254264D01*
X2833438Y249686D01*
X2823947Y242403D01*
X2816665Y232912D01*
X2812087Y221860D01*
X2810525Y210000D01*
X2812087Y198140D01*
X2816665Y187088D01*
X2823947Y177597D01*
X2833438Y170314D01*
X2844490Y165736D01*
X2856350Y164175D01*
X2868211Y165736D01*
X2879263Y170314D01*
X2888753Y177597D01*
X2896036Y187088D01*
X2900614Y198140D01*
X2902175Y210000D01*
X2900614Y221860D01*
X2896036Y232912D01*
X2888753Y242403D01*
X2879263Y249686D01*
X2868211Y254264D01*
X2856350Y255825D01*
D02*
G37*
G36*
X3495000Y215411D02*
X3478337Y213770D01*
X3462314Y208910D01*
X3447548Y201017D01*
X3434605Y190395D01*
X3423983Y177452D01*
X3416090Y162685D01*
X3411230Y146663D01*
X3409589Y130000D01*
X3411230Y113337D01*
X3416090Y97314D01*
X3423983Y82548D01*
X3434605Y69605D01*
X3447548Y58983D01*
X3462314Y51090D01*
X3478337Y46230D01*
X3495000Y44589D01*
X3511663Y46230D01*
X3527686Y51090D01*
X3542452Y58983D01*
X3555395Y69605D01*
X3566017Y82548D01*
X3573910Y97314D01*
X3578770Y113337D01*
X3580411Y130000D01*
X3578770Y146663D01*
X3573910Y162685D01*
X3566017Y177452D01*
X3555395Y190395D01*
X3542452Y201017D01*
X3527686Y208910D01*
X3511663Y213770D01*
X3495000Y215411D01*
D02*
G37*
G36*
X1430000D02*
X1413337Y213770D01*
X1397314Y208910D01*
X1382548Y201017D01*
X1369605Y190395D01*
X1358983Y177452D01*
X1351090Y162685D01*
X1346230Y146663D01*
X1344589Y130000D01*
X1346230Y113337D01*
X1351090Y97314D01*
X1358983Y82548D01*
X1369605Y69605D01*
X1382548Y58983D01*
X1397314Y51090D01*
X1413337Y46230D01*
X1430000Y44589D01*
X1446663Y46230D01*
X1462686Y51090D01*
X1477452Y58983D01*
X1490395Y69605D01*
X1501017Y82548D01*
X1508910Y97314D01*
X1513770Y113337D01*
X1515411Y130000D01*
X1513770Y146663D01*
X1508910Y162685D01*
X1501017Y177452D01*
X1490395Y190395D01*
X1477452Y201017D01*
X1462686Y208910D01*
X1446663Y213770D01*
X1430000Y215411D01*
D02*
G37*
%LPD*%
G36*
X2200507Y1772640D02*
X2203604Y1768604D01*
X2209706Y1763921D01*
Y1746335D01*
X2169186Y1705814D01*
X2166864Y1702340D01*
X2161085Y1700472D01*
X2160129Y1701205D01*
X2152832Y1704228D01*
X2145000Y1705259D01*
X2137168Y1704228D01*
X2129871Y1701205D01*
X2123604Y1696396D01*
X2118795Y1690129D01*
X2115772Y1682832D01*
X2114741Y1675000D01*
X2115772Y1667168D01*
X2118795Y1659871D01*
X2119528Y1658915D01*
X2117660Y1653136D01*
X2114186Y1650814D01*
X2103665Y1640294D01*
X1985674D01*
X1983761Y1644913D01*
X2043553Y1704706D01*
X2100000D01*
X2105853Y1705870D01*
X2110814Y1709186D01*
X2162374Y1760745D01*
X2170000Y1759741D01*
X2177832Y1760772D01*
X2185129Y1763795D01*
X2191396Y1768604D01*
X2194493Y1772640D01*
X2194712Y1772753D01*
X2200288D01*
X2200507Y1772640D01*
D02*
G37*
G36*
X2254706Y1771220D02*
Y1343447D01*
X2249706Y1342955D01*
X2249130Y1345853D01*
X2245814Y1350814D01*
X2014255Y1582374D01*
X2015259Y1590000D01*
X2014228Y1597832D01*
X2011380Y1604706D01*
X2012681Y1608359D01*
X2013346Y1609706D01*
X2110000D01*
X2115853Y1610870D01*
X2120814Y1614186D01*
X2131335Y1624706D01*
X2159497D01*
X2165350Y1625870D01*
X2170312Y1629186D01*
X2190814Y1649688D01*
X2194130Y1654650D01*
X2195294Y1660503D01*
Y1688665D01*
X2235814Y1729186D01*
X2239130Y1734147D01*
X2240294Y1740000D01*
Y1763921D01*
X2246396Y1768604D01*
X2249706Y1772917D01*
X2254706Y1771220D01*
D02*
G37*
D14*
X2037218Y1720000D02*
X2100000D01*
X1880000Y1562782D02*
X2037218Y1720000D01*
X1880000Y1060503D02*
Y1562782D01*
X1915000Y1569497D02*
X1970503Y1625000D01*
X1915000Y555000D02*
Y1569497D01*
X1970503Y1625000D02*
X2110000D01*
X1870000Y1050503D02*
X1880000Y1060503D01*
X1870000Y505000D02*
Y1050503D01*
X2180000Y1660503D02*
Y1695000D01*
X2125000Y1640000D02*
X2159497D01*
X2110000Y1625000D02*
X2125000Y1640000D01*
X2180000Y1695000D02*
X2225000Y1740000D01*
X2159497Y1640000D02*
X2180000Y1660503D01*
X2225000Y1740000D02*
Y1790000D01*
X2100000Y1720000D02*
X2170000Y1790000D01*
X1985000Y1590000D02*
X2235000Y1340000D01*
Y615000D02*
Y1340000D01*
X2195000Y575000D02*
X2235000Y615000D01*
X2600000Y301390D02*
X2691390Y210000D01*
X2600000Y301390D02*
Y495000D01*
X2425000Y670000D02*
X2600000Y495000D01*
X2425000Y670000D02*
Y1810000D01*
X2455000Y1840000D01*
Y1885000D01*
Y281429D02*
X2526429Y210000D01*
X2455000Y281429D02*
Y545000D01*
X2405000Y595000D02*
X2455000Y545000D01*
X2380000Y580000D02*
X2425000Y535000D01*
Y273925D02*
Y535000D01*
X2361075Y210000D02*
X2425000Y273925D01*
X2405000Y595000D02*
Y1920000D01*
X2380000Y580000D02*
Y1815000D01*
X2340000Y1855000D02*
X2380000Y1815000D01*
X2340000Y1855000D02*
Y1920000D01*
X2196114Y210000D02*
X2270000Y283886D01*
Y1920000D01*
D16*
X2361075Y210000D02*
D03*
X2526429D02*
D03*
X2196114D02*
D03*
X2691390D02*
D03*
X2856350D02*
D03*
X2361075Y460000D02*
D03*
X2526429D02*
D03*
X2196114D02*
D03*
X2691390D02*
D03*
X2031153D02*
D03*
X2856350D02*
D03*
D17*
X2031153Y210000D02*
D03*
D18*
X2093752Y710000D02*
D03*
X2793752D02*
D03*
D19*
X2293752Y3035000D02*
D03*
D20*
X2393752D02*
D03*
X2493752D02*
D03*
X2593752D02*
D03*
D21*
X1950000Y1935000D02*
D03*
X2305000Y1470000D02*
D03*
X1845000Y1075000D02*
D03*
X2995000Y980000D02*
D03*
Y865000D02*
D03*
X3280000Y1010000D02*
D03*
X2265000Y2055000D02*
D03*
X2085000Y1880000D02*
D03*
X2025000Y1955000D02*
D03*
X2145000Y1675000D02*
D03*
X1680000Y2090000D02*
D03*
X1850000Y2190000D02*
D03*
X1870000Y505000D02*
D03*
X1929130Y549147D02*
D03*
X2225000Y1790000D02*
D03*
X2170000D02*
D03*
X2184186Y564186D02*
D03*
X1985000Y1590000D02*
D03*
X2325000Y1795000D02*
D03*
X2320000Y1285000D02*
D03*
X2455000Y1885000D02*
D03*
X2405000Y1920000D02*
D03*
X2340000D02*
D03*
X2270000D02*
D03*
X1740000Y1665000D02*
D03*
X1798458Y1781542D02*
D03*
X1600000Y1895000D02*
D03*
X1420000Y1930000D02*
D03*
X2025000Y1865000D02*
D03*
X1680000Y1970000D02*
D03*
X1480000Y1795000D02*
D03*
X2320918Y2814082D02*
D03*
X2230000Y2340000D02*
D03*
X1385000Y2750000D02*
D03*
X1950000Y1110000D02*
D03*
X2040000Y990000D02*
D03*
X2320000Y2310000D02*
D03*
X1785000Y1365000D02*
D03*
X1960000Y2015000D02*
D03*
X1750000Y645000D02*
D03*
Y2685000D02*
D03*
X2935000Y1980000D02*
D03*
X1475000Y775000D02*
D03*
X2595000Y645000D02*
D03*
X2320000Y775000D02*
D03*
X3435000Y645000D02*
D03*
X3160000Y775000D02*
D03*
X1475000Y1285000D02*
D03*
X1750000Y1155000D02*
D03*
X2595000D02*
D03*
X3435000D02*
D03*
X3160000Y1285000D02*
D03*
X2600000Y1665000D02*
D03*
X3440000D02*
D03*
X3165000Y1795000D02*
D03*
X1475000Y2310000D02*
D03*
X1750000Y2180000D02*
D03*
X2595000D02*
D03*
X3435000D02*
D03*
X3160000Y2310000D02*
D03*
Y2815000D02*
D03*
X3435000Y2685000D02*
D03*
X2595000D02*
D03*
X1475000Y2815000D02*
D03*
D22*
X3495000Y130000D02*
D03*
X1430000D02*
D03*
X3495000Y2995000D02*
D03*
X1435000Y2990000D02*
D03*
%TF.MD5,cb597f6111e4eafc5fcc9180ff36b420*%
M02*
