%TF.GenerationSoftware,Altium Limited,Altium Designer,20.0.9 (164)*%
G04 Layer_Color=16711935*
%FSLAX26Y26*%
%MOIN*%
%TF.FileFunction,Soldermask,Bot*%
%TF.Part,Single*%
G01*
G75*
%TA.AperFunction,SMDPad,CuDef*%
%ADD50R,0.082803X0.069024*%
%ADD51R,0.043433X0.078866*%
%ADD52R,0.222567X0.252095*%
%ADD53R,0.082803X0.067055*%
%ADD54R,0.037528X0.114299*%
%ADD55R,0.072961X0.051307*%
%ADD56R,0.043433X0.082803*%
%ADD57R,0.133984X0.082803*%
%ADD58O,0.017843X0.069024*%
%ADD59O,0.069024X0.017843*%
%ADD60R,0.067055X0.063118*%
%ADD61R,0.067055X0.082803*%
%ADD62R,0.102488X0.082803*%
%ADD63R,0.078866X0.059181*%
%ADD64R,0.043433X0.070992*%
%ADD65R,0.059181X0.065087*%
G04:AMPARAMS|DCode=66|XSize=29.654mil|YSize=57.213mil|CornerRadius=5.949mil|HoleSize=0mil|Usage=FLASHONLY|Rotation=180.000|XOffset=0mil|YOffset=0mil|HoleType=Round|Shape=RoundedRectangle|*
%AMROUNDEDRECTD66*
21,1,0.029654,0.045315,0,0,180.0*
21,1,0.017756,0.057213,0,0,180.0*
1,1,0.011898,-0.008878,0.022657*
1,1,0.011898,0.008878,0.022657*
1,1,0.011898,0.008878,-0.022657*
1,1,0.011898,-0.008878,-0.022657*
%
%ADD66ROUNDEDRECTD66*%
%ADD67R,0.074929X0.053276*%
%TA.AperFunction,ComponentPad*%
%ADD68C,0.078866*%
%ADD69R,0.078866X0.078866*%
%ADD70C,0.127685*%
%ADD71R,0.069024X0.069024*%
%ADD72C,0.069024*%
%TA.AperFunction,ViaPad*%
%ADD73C,0.048000*%
%ADD74C,0.158000*%
D50*
X1845000Y1293071D02*
D03*
Y1176929D02*
D03*
X2800000Y1008071D02*
D03*
Y891929D02*
D03*
D51*
X2905236Y1170354D02*
D03*
X3084764D02*
D03*
D52*
X2995000Y926260D02*
D03*
D53*
X3190000Y890945D02*
D03*
Y1009055D02*
D03*
X1890000Y1415945D02*
D03*
Y1534055D02*
D03*
X1680000Y1970945D02*
D03*
Y2089055D02*
D03*
D54*
X2392992Y945000D02*
D03*
X2517008D02*
D03*
X2392992Y1470000D02*
D03*
X2517008D02*
D03*
Y2490000D02*
D03*
X2392992D02*
D03*
D55*
X1385000Y2671102D02*
D03*
Y2558898D02*
D03*
X2695472Y2034567D02*
D03*
Y1922362D02*
D03*
D56*
X1949449Y1226142D02*
D03*
X2040000D02*
D03*
X2130551D02*
D03*
D57*
X2040000Y993858D02*
D03*
D58*
X2127795Y2111929D02*
D03*
X2108110D02*
D03*
X2088425D02*
D03*
X2068740D02*
D03*
X2049055D02*
D03*
X2029370D02*
D03*
X2009685D02*
D03*
X1990000D02*
D03*
X1970315D02*
D03*
X1950630D02*
D03*
X1930945D02*
D03*
X1911260D02*
D03*
Y1795000D02*
D03*
X1930945D02*
D03*
X1950630D02*
D03*
X1970315D02*
D03*
X1990000D02*
D03*
X2009685D02*
D03*
X2029370D02*
D03*
X2049055D02*
D03*
X2068740D02*
D03*
X2088425D02*
D03*
X2108110D02*
D03*
X2127795D02*
D03*
D59*
X1861063Y2061732D02*
D03*
Y2042047D02*
D03*
Y2022362D02*
D03*
Y2002677D02*
D03*
Y1982992D02*
D03*
Y1963307D02*
D03*
Y1943622D02*
D03*
Y1923937D02*
D03*
Y1904252D02*
D03*
Y1884567D02*
D03*
Y1864882D02*
D03*
Y1845197D02*
D03*
X2177992D02*
D03*
Y1864882D02*
D03*
Y1884567D02*
D03*
Y1904252D02*
D03*
Y1923937D02*
D03*
Y1943622D02*
D03*
Y1963307D02*
D03*
Y1982992D02*
D03*
Y2002677D02*
D03*
Y2022362D02*
D03*
Y2042047D02*
D03*
Y2061732D02*
D03*
D60*
X3535000Y2004055D02*
D03*
Y1885945D02*
D03*
D61*
X1999055Y1680000D02*
D03*
X1880945D02*
D03*
X2170945Y2210000D02*
D03*
X2289055D02*
D03*
D62*
X2560472Y2059882D02*
D03*
Y1898465D02*
D03*
D63*
X3535000Y2113976D02*
D03*
Y2236024D02*
D03*
D64*
X2061850Y2340000D02*
D03*
X2168150D02*
D03*
D65*
X2793976Y1928465D02*
D03*
X2856968D02*
D03*
X2793976Y2028465D02*
D03*
X2856968D02*
D03*
D66*
X1705000Y1371654D02*
D03*
X1655000D02*
D03*
X1605000D02*
D03*
X1555000D02*
D03*
X1705000Y1578347D02*
D03*
X1655000D02*
D03*
X1605000D02*
D03*
X1555000D02*
D03*
D67*
X1785000Y1423819D02*
D03*
Y1526181D02*
D03*
D68*
X2361075Y210000D02*
D03*
X2526429D02*
D03*
X2196114D02*
D03*
X2691390D02*
D03*
X2856350D02*
D03*
X2361075Y460000D02*
D03*
X2526429D02*
D03*
X2196114D02*
D03*
X2691390D02*
D03*
X2031153D02*
D03*
X2856350D02*
D03*
D69*
X2031153Y210000D02*
D03*
D70*
X2093752Y710000D02*
D03*
X2793752D02*
D03*
D71*
X2293752Y3035000D02*
D03*
D72*
X2393752D02*
D03*
X2493752D02*
D03*
X2593752D02*
D03*
D73*
X1950000Y1935000D02*
D03*
X2305000Y1470000D02*
D03*
X1845000Y1075000D02*
D03*
X2995000Y980000D02*
D03*
Y865000D02*
D03*
X3280000Y1010000D02*
D03*
X2265000Y2055000D02*
D03*
X2085000Y1880000D02*
D03*
X2025000Y1955000D02*
D03*
X2145000Y1675000D02*
D03*
X1680000Y2090000D02*
D03*
X1850000Y2190000D02*
D03*
X1870000Y505000D02*
D03*
X1929130Y549147D02*
D03*
X2225000Y1790000D02*
D03*
X2170000D02*
D03*
X2184186Y564186D02*
D03*
X1985000Y1590000D02*
D03*
X2325000Y1795000D02*
D03*
X2320000Y1285000D02*
D03*
X2455000Y1885000D02*
D03*
X2405000Y1920000D02*
D03*
X2340000D02*
D03*
X2270000D02*
D03*
X1740000Y1665000D02*
D03*
X1798458Y1781542D02*
D03*
X1600000Y1895000D02*
D03*
X1420000Y1930000D02*
D03*
X2025000Y1865000D02*
D03*
X1680000Y1970000D02*
D03*
X1480000Y1795000D02*
D03*
X2320918Y2814082D02*
D03*
X2230000Y2340000D02*
D03*
X1385000Y2750000D02*
D03*
X1950000Y1110000D02*
D03*
X2040000Y990000D02*
D03*
X2320000Y2310000D02*
D03*
X1785000Y1365000D02*
D03*
X1960000Y2015000D02*
D03*
X1750000Y645000D02*
D03*
Y2685000D02*
D03*
X2935000Y1980000D02*
D03*
X1475000Y775000D02*
D03*
X2595000Y645000D02*
D03*
X2320000Y775000D02*
D03*
X3435000Y645000D02*
D03*
X3160000Y775000D02*
D03*
X1475000Y1285000D02*
D03*
X1750000Y1155000D02*
D03*
X2595000D02*
D03*
X3435000D02*
D03*
X3160000Y1285000D02*
D03*
X2600000Y1665000D02*
D03*
X3440000D02*
D03*
X3165000Y1795000D02*
D03*
X1475000Y2310000D02*
D03*
X1750000Y2180000D02*
D03*
X2595000D02*
D03*
X3435000D02*
D03*
X3160000Y2310000D02*
D03*
Y2815000D02*
D03*
X3435000Y2685000D02*
D03*
X2595000D02*
D03*
X1475000Y2815000D02*
D03*
D74*
X3495000Y130000D02*
D03*
X1430000D02*
D03*
X3495000Y2995000D02*
D03*
X1435000Y2990000D02*
D03*
%TF.MD5,7ed42b69b3899ce91bab9814a23823c8*%
M02*
