%TF.GenerationSoftware,Altium Limited,Altium Designer,20.0.9 (164)*%
G04 Layer_Color=255*
%FSLAX26Y26*%
%MOIN*%
%TF.FileFunction,Pads,Top*%
%TF.Part,Single*%
G01*
G75*
%TA.AperFunction,SMDPad,CuDef*%
%ADD10R,0.059055X0.035433*%
%TA.AperFunction,ComponentPad*%
%ADD16C,0.070866*%
%ADD17R,0.070866X0.070866*%
%ADD18C,0.119685*%
%ADD19R,0.061024X0.061024*%
%ADD20C,0.061024*%
D10*
X3203543Y2815000D02*
D03*
Y2685079D02*
D03*
X3396457D02*
D03*
Y2815000D02*
D03*
X2361043D02*
D03*
Y2685079D02*
D03*
X2553957D02*
D03*
Y2815000D02*
D03*
X1518543D02*
D03*
Y2685079D02*
D03*
X1711457D02*
D03*
Y2815000D02*
D03*
X3203543Y2309961D02*
D03*
Y2180039D02*
D03*
X3396457D02*
D03*
Y2309961D02*
D03*
X2361043D02*
D03*
Y2180039D02*
D03*
X2553957D02*
D03*
Y2309961D02*
D03*
X1518543D02*
D03*
Y2180039D02*
D03*
X1711457D02*
D03*
Y2309961D02*
D03*
X3203543Y1794980D02*
D03*
Y1665059D02*
D03*
X3396457D02*
D03*
Y1794980D02*
D03*
X2361043D02*
D03*
Y1665059D02*
D03*
X2553957D02*
D03*
Y1794980D02*
D03*
X1518543D02*
D03*
Y1665059D02*
D03*
X1711457D02*
D03*
Y1794980D02*
D03*
X3203543Y1284970D02*
D03*
Y1155049D02*
D03*
X3396457D02*
D03*
Y1284970D02*
D03*
X2361043D02*
D03*
Y1155049D02*
D03*
X2553957D02*
D03*
Y1284970D02*
D03*
X1518543D02*
D03*
Y1155049D02*
D03*
X1711457D02*
D03*
Y1284970D02*
D03*
X3203543Y774961D02*
D03*
Y645039D02*
D03*
X3396457D02*
D03*
Y774961D02*
D03*
X2361043D02*
D03*
Y645039D02*
D03*
X2553957D02*
D03*
Y774961D02*
D03*
X1518543D02*
D03*
Y645039D02*
D03*
X1711457D02*
D03*
Y774961D02*
D03*
D16*
X2361075Y210000D02*
D03*
X2526429D02*
D03*
X2196114D02*
D03*
X2691390D02*
D03*
X2856350D02*
D03*
X2361075Y460000D02*
D03*
X2526429D02*
D03*
X2196114D02*
D03*
X2691390D02*
D03*
X2031153D02*
D03*
X2856350D02*
D03*
D17*
X2031153Y210000D02*
D03*
D18*
X2093752Y710000D02*
D03*
X2793752D02*
D03*
D19*
X2293752Y3035000D02*
D03*
D20*
X2393752D02*
D03*
X2493752D02*
D03*
X2593752D02*
D03*
%TF.MD5,6c97f402af18bffa75b4461c68252e2b*%
M02*
