%TF.GenerationSoftware,Altium Limited,Altium Designer,20.0.9 (164)*%
G04 Layer_Color=16711935*
%FSLAX26Y26*%
%MOIN*%
%TF.FileFunction,Other,Mechanical_13*%
%TF.Part,Single*%
G01*
G75*
%TA.AperFunction,NonConductor*%
%ADD85C,0.003937*%
D85*
X2141575Y2055827D02*
G03*
X2141575Y2055827I-19685J0D01*
G01*
X1586693Y1518307D02*
G03*
X1586693Y1518307I-19685J0D01*
G01*
X2384134Y889882D02*
Y1000118D01*
X2525866Y889882D02*
Y1000118D01*
X2384134Y889882D02*
X2525866D01*
X2384134Y1000118D02*
X2525866D01*
X2384134Y1414882D02*
Y1525118D01*
X2525866Y1414882D02*
Y1525118D01*
X2384134Y1414882D02*
X2525866D01*
X2384134Y1525118D02*
X2525866D01*
Y2434882D02*
Y2545118D01*
X2384134Y2434882D02*
Y2545118D01*
X2525866D01*
X2384134Y2434882D02*
X2525866D01*
X1352520Y2551024D02*
Y2678976D01*
X1417480Y2551024D02*
Y2678976D01*
X1352520D02*
X1417480D01*
X1352520Y2551024D02*
X1417480D01*
X1908110Y1182835D02*
X2171890D01*
X1908110Y1037165D02*
X2171890D01*
X1908110D02*
Y1182835D01*
X2171890Y1037165D02*
Y1182835D01*
X2769567Y868071D02*
X2840433D01*
X2769567Y1001929D02*
X2840433D01*
Y868071D02*
Y1001929D01*
X2769567Y868071D02*
Y1001929D01*
X3051535Y875039D02*
X3118465D01*
X3051535Y1004961D02*
X3118465D01*
Y875039D02*
Y1004961D01*
X3051535Y875039D02*
Y1004961D01*
X3026929Y1124567D02*
Y1195433D01*
X2893071Y1124567D02*
Y1195433D01*
X3026929D01*
X2893071Y1124567D02*
X3026929D01*
X3209449Y874055D02*
Y1005945D01*
X3140551Y874055D02*
Y1005945D01*
Y874055D02*
X3209449D01*
X3140551Y1005945D02*
X3209449D01*
X3201575Y2651614D02*
Y2848465D01*
X3398425D01*
X3201575Y2651614D02*
X3398425D01*
Y2848465D01*
X2359075Y2651614D02*
Y2848465D01*
X2555925D01*
X2359075Y2651614D02*
X2555925D01*
Y2848465D01*
X1516575Y2651614D02*
Y2848465D01*
X1713425D01*
X1516575Y2651614D02*
X1713425D01*
Y2848465D01*
X3201575Y2146575D02*
Y2343425D01*
X3398425D01*
X3201575Y2146575D02*
X3398425D01*
Y2343425D01*
X2359075Y2146575D02*
Y2343425D01*
X2555925D01*
X2359075Y2146575D02*
X2555925D01*
Y2343425D01*
X1516575Y2146575D02*
Y2343425D01*
X1713425D01*
X1516575Y2146575D02*
X1713425D01*
Y2343425D01*
X3201575Y1631594D02*
Y1828445D01*
X3398425D01*
X3201575Y1631594D02*
X3398425D01*
Y1828445D01*
X2359075Y1631594D02*
Y1828445D01*
X2555925D01*
X2359075Y1631594D02*
X2555925D01*
Y1828445D01*
X1516575Y1631594D02*
Y1828445D01*
X1713425D01*
X1516575Y1631594D02*
X1713425D01*
Y1828445D01*
X3201575Y1121585D02*
Y1318435D01*
X3398425D01*
X3201575Y1121585D02*
X3398425D01*
Y1318435D01*
X2359075Y1121585D02*
Y1318435D01*
X2555925D01*
X2359075Y1121585D02*
X2555925D01*
Y1318435D01*
X1516575Y1121585D02*
Y1318435D01*
X1713425D01*
X1516575Y1121585D02*
X1713425D01*
Y1318435D01*
X3201575Y611575D02*
Y808425D01*
X3398425D01*
X3201575Y611575D02*
X3398425D01*
Y808425D01*
X2359075Y611575D02*
Y808425D01*
X2555925D01*
X2359075Y611575D02*
X2555925D01*
Y808425D01*
X1516575Y611575D02*
Y808425D01*
X1713425D01*
X1516575Y611575D02*
X1713425D01*
Y808425D01*
X2651232Y2985000D02*
Y3085000D01*
X2236271Y2985000D02*
X2651232D01*
X2236271D02*
Y3085000D01*
X2651232D01*
X1881732Y1815669D02*
X2157323D01*
X1881732Y2091260D02*
X2157323D01*
X1881732Y1815669D02*
Y2091260D01*
X2157323Y1815669D02*
Y2091260D01*
X3501535Y2007992D02*
X3568465D01*
X3501535Y1882008D02*
X3568465D01*
X3501535D02*
Y2007992D01*
X3568465Y1882008D02*
Y2007992D01*
X1925433Y1408071D02*
Y1541929D01*
X1854567Y1408071D02*
Y1541929D01*
Y1408071D02*
X1925433D01*
X1854567Y1541929D02*
X1925433D01*
X1873071Y1715433D02*
X2006929D01*
X1873071Y1644567D02*
X2006929D01*
Y1715433D01*
X1873071Y1644567D02*
Y1715433D01*
X2497480Y2077598D02*
X2623465D01*
X2497480Y1880748D02*
X2623465D01*
Y2077598D01*
X2497480Y1880748D02*
Y2077598D01*
X2163071Y2174567D02*
X2296929D01*
X2163071Y2245433D02*
X2296929D01*
X2163071Y2174567D02*
Y2245433D01*
X2296929Y2174567D02*
Y2245433D01*
X1715433Y1963071D02*
Y2096929D01*
X1644567Y1963071D02*
Y2096929D01*
Y1963071D02*
X1715433D01*
X1644567Y2096929D02*
X1715433D01*
X3501535Y2110039D02*
X3568465D01*
X3501535Y2239961D02*
X3568465D01*
Y2110039D02*
Y2239961D01*
X3501535Y2110039D02*
Y2239961D01*
X2050039Y2306535D02*
Y2373465D01*
X2179961Y2306535D02*
Y2373465D01*
X2050039Y2306535D02*
X2179961D01*
X2050039Y2373465D02*
X2179961D01*
X2782165Y1899921D02*
X2868780D01*
X2782165Y1957008D02*
X2868780D01*
X2782165Y1899921D02*
Y1957008D01*
X2868780Y1899921D02*
Y1957008D01*
X1728425Y1396260D02*
Y1553740D01*
X1531575Y1396260D02*
Y1553740D01*
Y1396260D02*
X1728425D01*
X1531575Y1553740D02*
X1728425D01*
X2662992Y2042441D02*
X2727953D01*
X2662992Y1914488D02*
X2727953D01*
X2662992D02*
Y2042441D01*
X2727953Y1914488D02*
Y2042441D01*
X1819449Y1409055D02*
Y1540945D01*
X1750551Y1409055D02*
Y1540945D01*
Y1409055D02*
X1819449D01*
X1750551Y1540945D02*
X1819449D01*
X2782165Y1999921D02*
X2868780D01*
X2782165Y2057008D02*
X2868780D01*
X2782165Y1999921D02*
Y2057008D01*
X2868780Y1999921D02*
Y2057008D01*
%TF.MD5,e5516e950181e6a1a6726c2ce97ca3e4*%
M02*
