%TF.GenerationSoftware,Altium Limited,Altium Designer,20.0.9 (164)*%
G04 Layer_Color=128*
%FSLAX26Y26*%
%MOIN*%
%TF.FileFunction,Paste,Bot*%
%TF.Part,Single*%
G01*
G75*
%TA.AperFunction,SMDPad,CuDef*%
%ADD23R,0.074803X0.061024*%
%ADD24R,0.035433X0.070866*%
%ADD25R,0.214567X0.244095*%
%ADD26R,0.074803X0.059055*%
%ADD27R,0.029528X0.106299*%
%ADD28R,0.064961X0.043307*%
%ADD29R,0.035433X0.074803*%
%ADD30R,0.125984X0.074803*%
%ADD31O,0.009842X0.061024*%
%ADD32O,0.061024X0.009842*%
%ADD33R,0.059055X0.055118*%
%ADD34R,0.059055X0.074803*%
%ADD35R,0.094488X0.074803*%
%ADD36R,0.070866X0.051181*%
%ADD37R,0.035433X0.062992*%
%ADD38R,0.051181X0.057087*%
G04:AMPARAMS|DCode=39|XSize=21.654mil|YSize=49.213mil|CornerRadius=1.949mil|HoleSize=0mil|Usage=FLASHONLY|Rotation=180.000|XOffset=0mil|YOffset=0mil|HoleType=Round|Shape=RoundedRectangle|*
%AMROUNDEDRECTD39*
21,1,0.021654,0.045315,0,0,180.0*
21,1,0.017756,0.049213,0,0,180.0*
1,1,0.003898,-0.008878,0.022657*
1,1,0.003898,0.008878,0.022657*
1,1,0.003898,0.008878,-0.022657*
1,1,0.003898,-0.008878,-0.022657*
%
%ADD39ROUNDEDRECTD39*%
%ADD40R,0.066929X0.045276*%
D23*
X1845000Y1293071D02*
D03*
Y1176929D02*
D03*
X2800000Y1008071D02*
D03*
Y891929D02*
D03*
D24*
X2905236Y1170354D02*
D03*
X3084764D02*
D03*
D25*
X2995000Y926260D02*
D03*
D26*
X3190000Y890945D02*
D03*
Y1009055D02*
D03*
X1890000Y1415945D02*
D03*
Y1534055D02*
D03*
X1680000Y1970945D02*
D03*
Y2089055D02*
D03*
D27*
X2392992Y945000D02*
D03*
X2517008D02*
D03*
X2392992Y1470000D02*
D03*
X2517008D02*
D03*
Y2490000D02*
D03*
X2392992D02*
D03*
D28*
X1385000Y2671102D02*
D03*
Y2558898D02*
D03*
X2695472Y2034567D02*
D03*
Y1922362D02*
D03*
D29*
X1949449Y1226142D02*
D03*
X2040000D02*
D03*
X2130551D02*
D03*
D30*
X2040000Y993858D02*
D03*
D31*
X2127795Y2111929D02*
D03*
X2108110D02*
D03*
X2088425D02*
D03*
X2068740D02*
D03*
X2049055D02*
D03*
X2029370D02*
D03*
X2009685D02*
D03*
X1990000D02*
D03*
X1970315D02*
D03*
X1950630D02*
D03*
X1930945D02*
D03*
X1911260D02*
D03*
Y1795000D02*
D03*
X1930945D02*
D03*
X1950630D02*
D03*
X1970315D02*
D03*
X1990000D02*
D03*
X2009685D02*
D03*
X2029370D02*
D03*
X2049055D02*
D03*
X2068740D02*
D03*
X2088425D02*
D03*
X2108110D02*
D03*
X2127795D02*
D03*
D32*
X1861063Y2061732D02*
D03*
Y2042047D02*
D03*
Y2022362D02*
D03*
Y2002677D02*
D03*
Y1982992D02*
D03*
Y1963307D02*
D03*
Y1943622D02*
D03*
Y1923937D02*
D03*
Y1904252D02*
D03*
Y1884567D02*
D03*
Y1864882D02*
D03*
Y1845197D02*
D03*
X2177992D02*
D03*
Y1864882D02*
D03*
Y1884567D02*
D03*
Y1904252D02*
D03*
Y1923937D02*
D03*
Y1943622D02*
D03*
Y1963307D02*
D03*
Y1982992D02*
D03*
Y2002677D02*
D03*
Y2022362D02*
D03*
Y2042047D02*
D03*
Y2061732D02*
D03*
D33*
X3535000Y2004055D02*
D03*
Y1885945D02*
D03*
D34*
X1999055Y1680000D02*
D03*
X1880945D02*
D03*
X2170945Y2210000D02*
D03*
X2289055D02*
D03*
D35*
X2560472Y2059882D02*
D03*
Y1898465D02*
D03*
D36*
X3535000Y2113976D02*
D03*
Y2236024D02*
D03*
D37*
X2061850Y2340000D02*
D03*
X2168150D02*
D03*
D38*
X2793976Y1928465D02*
D03*
X2856968D02*
D03*
X2793976Y2028465D02*
D03*
X2856968D02*
D03*
D39*
X1705000Y1371654D02*
D03*
X1655000D02*
D03*
X1605000D02*
D03*
X1555000D02*
D03*
X1705000Y1578347D02*
D03*
X1655000D02*
D03*
X1605000D02*
D03*
X1555000D02*
D03*
D40*
X1785000Y1423819D02*
D03*
Y1526181D02*
D03*
%TF.MD5,c7b9e295fb8f24a903c82b5d03c47549*%
M02*
