M48
;Layer_Color=9474304
;FILE_FORMAT=2:5
INCH,LZ
;TYPE=PLATED
T1F00S00C0.02000
T2F00S00C0.04016
T3F00S00C0.04724
T4F00S00C0.12000
;TYPE=NON_PLATED
T5F00S00C0.11968
%
T01
X01475Y00775
Y01285
X01785Y01365
X0175Y01155
X01845Y01075
X0195Y0111
X0204Y0099
X0232Y00775
X0218419Y0056419
X0192913Y0054915
X0187Y00505
X0175Y00645
X02595
Y01155
X0232Y01285
X02305Y0147
X02995Y0098
Y00865
X0316Y00775
X0328Y0101
X03435Y01155
X0316Y01285
X03435Y00645
X0344Y01665
X03165Y01795
X0316Y0231
X03435Y0218
Y02685
X0316Y02815
X02595Y02685
X0232092Y0281408
X0232Y0231
X0223Y0234
X02265Y02055
X0227Y0192
X0234
X02405
X02455Y01885
X02325Y01795
X02225Y0179
X0217
X02145Y01675
X01985Y0159
X02025Y01865
X02085Y0188
X02025Y01955
X0195Y01935
X0196Y02015
X0185Y0219
X0175Y0218
X0168Y0209
Y0197
X016Y01895
X0179846Y0178154
X0174Y01665
X026
X02595Y0218
X02935Y0198
X0175Y02685
X01475Y02815
X01385Y0275
X01475Y0231
X0142Y0193
X0148Y01795
T02
X0229375Y03035
X0239375
X0249375
X0259375
T03
X0203115Y0021
X0219611
X0236107
X0252643
X0269139
X0285635
Y0046
X0269139
X0252643
X0236107
X0219611
X0203115
T04
X0143Y0013
X03495
Y02995
X01435Y0299
T05
X0209375Y0071
X0279375
M30
