%TF.GenerationSoftware,Altium Limited,Altium Designer,20.0.9 (164)*%
G04 Layer_Color=65535*
%FSLAX26Y26*%
%MOIN*%
%TF.FileFunction,Legend,Top*%
%TF.Part,Single*%
G01*
G75*
%TA.AperFunction,NonConductor*%
%ADD48C,0.010000*%
%ADD50C,0.007874*%
%ADD51C,0.009842*%
D48*
X3225000Y725000D02*
X3280000Y780000D01*
X1540000Y2750000D02*
X1595000Y2805000D01*
D50*
X3201575Y2848465D02*
X3398425D01*
X3201575Y2651614D02*
X3398425D01*
X3201575D02*
Y2653583D01*
X3398425Y2651614D02*
Y2653583D01*
Y2846496D02*
Y2848465D01*
X3201575Y2846496D02*
Y2848465D01*
Y2718543D02*
Y2781535D01*
X3398425Y2718543D02*
Y2781535D01*
X2359075Y2848465D02*
X2555925D01*
X2359075Y2651614D02*
X2555925D01*
X2359075D02*
Y2653583D01*
X2555925Y2651614D02*
Y2653583D01*
Y2846496D02*
Y2848465D01*
X2359075Y2846496D02*
Y2848465D01*
Y2718543D02*
Y2781535D01*
X2555925Y2718543D02*
Y2781535D01*
X1516575Y2848465D02*
X1713425D01*
X1516575Y2651614D02*
X1713425D01*
X1516575D02*
Y2653583D01*
X1713425Y2651614D02*
Y2653583D01*
Y2846496D02*
Y2848465D01*
X1516575Y2846496D02*
Y2848465D01*
Y2718543D02*
Y2781535D01*
X1713425Y2718543D02*
Y2781535D01*
X3201575Y2343425D02*
X3398425D01*
X3201575Y2146575D02*
X3398425D01*
X3201575D02*
Y2148543D01*
X3398425Y2146575D02*
Y2148543D01*
Y2341457D02*
Y2343425D01*
X3201575Y2341457D02*
Y2343425D01*
Y2213504D02*
Y2276496D01*
X3398425Y2213504D02*
Y2276496D01*
X2359075Y2343425D02*
X2555925D01*
X2359075Y2146575D02*
X2555925D01*
X2359075D02*
Y2148543D01*
X2555925Y2146575D02*
Y2148543D01*
Y2341457D02*
Y2343425D01*
X2359075Y2341457D02*
Y2343425D01*
Y2213504D02*
Y2276496D01*
X2555925Y2213504D02*
Y2276496D01*
X1516575Y2343425D02*
X1713425D01*
X1516575Y2146575D02*
X1713425D01*
X1516575D02*
Y2148543D01*
X1713425Y2146575D02*
Y2148543D01*
Y2341457D02*
Y2343425D01*
X1516575Y2341457D02*
Y2343425D01*
Y2213504D02*
Y2276496D01*
X1713425Y2213504D02*
Y2276496D01*
X3201575Y1828445D02*
X3398425D01*
X3201575Y1631594D02*
X3398425D01*
X3201575D02*
Y1633563D01*
X3398425Y1631594D02*
Y1633563D01*
Y1826476D02*
Y1828445D01*
X3201575Y1826476D02*
Y1828445D01*
Y1698524D02*
Y1761516D01*
X3398425Y1698524D02*
Y1761516D01*
X2359075Y1828445D02*
X2555925D01*
X2359075Y1631594D02*
X2555925D01*
X2359075D02*
Y1633563D01*
X2555925Y1631594D02*
Y1633563D01*
Y1826476D02*
Y1828445D01*
X2359075Y1826476D02*
Y1828445D01*
Y1698524D02*
Y1761516D01*
X2555925Y1698524D02*
Y1761516D01*
X1516575Y1828445D02*
X1713425D01*
X1516575Y1631594D02*
X1713425D01*
X1516575D02*
Y1633563D01*
X1713425Y1631594D02*
Y1633563D01*
Y1826476D02*
Y1828445D01*
X1516575Y1826476D02*
Y1828445D01*
Y1698524D02*
Y1761516D01*
X1713425Y1698524D02*
Y1761516D01*
X3201575Y1318435D02*
X3398425D01*
X3201575Y1121585D02*
X3398425D01*
X3201575D02*
Y1123553D01*
X3398425Y1121585D02*
Y1123553D01*
Y1316466D02*
Y1318435D01*
X3201575Y1316466D02*
Y1318435D01*
Y1188514D02*
Y1251506D01*
X3398425Y1188514D02*
Y1251506D01*
X2359075Y1318435D02*
X2555925D01*
X2359075Y1121585D02*
X2555925D01*
X2359075D02*
Y1123553D01*
X2555925Y1121585D02*
Y1123553D01*
Y1316466D02*
Y1318435D01*
X2359075Y1316466D02*
Y1318435D01*
Y1188514D02*
Y1251506D01*
X2555925Y1188514D02*
Y1251506D01*
X1516575Y1318435D02*
X1713425D01*
X1516575Y1121585D02*
X1713425D01*
X1516575D02*
Y1123553D01*
X1713425Y1121585D02*
Y1123553D01*
Y1316466D02*
Y1318435D01*
X1516575Y1316466D02*
Y1318435D01*
Y1188514D02*
Y1251506D01*
X1713425Y1188514D02*
Y1251506D01*
X3201575Y808425D02*
X3398425D01*
X3201575Y611575D02*
X3398425D01*
X3201575D02*
Y613543D01*
X3398425Y611575D02*
Y613543D01*
Y806457D02*
Y808425D01*
X3201575Y806457D02*
Y808425D01*
Y678504D02*
Y741496D01*
X3398425Y678504D02*
Y741496D01*
X2359075Y808425D02*
X2555925D01*
X2359075Y611575D02*
X2555925D01*
X2359075D02*
Y613543D01*
X2555925Y611575D02*
Y613543D01*
Y806457D02*
Y808425D01*
X2359075Y806457D02*
Y808425D01*
Y678504D02*
Y741496D01*
X2555925Y678504D02*
Y741496D01*
X1516575Y808425D02*
X1713425D01*
X1516575Y611575D02*
X1713425D01*
X1516575D02*
Y613543D01*
X1713425Y611575D02*
Y613543D01*
Y806457D02*
Y808425D01*
X1516575Y806457D02*
Y808425D01*
Y678504D02*
Y741496D01*
X1713425Y678504D02*
Y741496D01*
X2651232Y2985000D02*
Y3085000D01*
X2236271Y2985000D02*
X2651232D01*
X2236271D02*
Y3085000D01*
X2651232D01*
D51*
X3157284Y2815000D02*
G03*
X3157284Y2815000I-4921J0D01*
G01*
X2314783D02*
G03*
X2314783Y2815000I-4921J0D01*
G01*
X1472284D02*
G03*
X1472284Y2815000I-4921J0D01*
G01*
X3157284Y2309961D02*
G03*
X3157284Y2309961I-4921J0D01*
G01*
X2314783D02*
G03*
X2314783Y2309961I-4921J0D01*
G01*
X1472284D02*
G03*
X1472284Y2309961I-4921J0D01*
G01*
X3157284Y1794980D02*
G03*
X3157284Y1794980I-4921J0D01*
G01*
X2314784D02*
G03*
X2314784Y1794980I-4921J0D01*
G01*
X1472284D02*
G03*
X1472284Y1794980I-4921J0D01*
G01*
X3157284Y1284970D02*
G03*
X3157284Y1284970I-4921J0D01*
G01*
X2314784D02*
G03*
X2314784Y1284970I-4921J0D01*
G01*
X1472283D02*
G03*
X1472283Y1284970I-4921J0D01*
G01*
X3157284Y774961D02*
G03*
X3157284Y774961I-4921J0D01*
G01*
X2314784D02*
G03*
X2314784Y774961I-4921J0D01*
G01*
X1472284D02*
G03*
X1472284Y774961I-4921J0D01*
G01*
%TF.MD5,169c90f249d996a848a9d906d8e8b6f6*%
M02*
