%TF.GenerationSoftware,Altium Limited,Altium Designer,20.0.9 (164)*%
G04 Layer_Physical_Order=4*
G04 Layer_Color=16711680*
%FSLAX26Y26*%
%MOIN*%
%TF.FileFunction,Copper,L4,Bot,Signal*%
%TF.Part,Single*%
G01*
G75*
%TA.AperFunction,Conductor*%
%ADD11C,0.020000*%
%ADD12C,0.030000*%
%ADD13C,0.008000*%
%ADD14C,0.010000*%
%ADD15C,0.009000*%
%TA.AperFunction,ComponentPad*%
%ADD16C,0.070866*%
%ADD17R,0.070866X0.070866*%
%ADD18C,0.119685*%
%ADD19R,0.061024X0.061024*%
%ADD20C,0.061024*%
%TA.AperFunction,ViaPad*%
%ADD21C,0.040000*%
%ADD22C,0.150000*%
%TA.AperFunction,SMDPad,CuDef*%
%ADD23R,0.074803X0.061024*%
%ADD24R,0.035433X0.070866*%
%ADD25R,0.214567X0.244095*%
%ADD26R,0.074803X0.059055*%
%ADD27R,0.029528X0.106299*%
%ADD28R,0.064961X0.043307*%
%ADD29R,0.035433X0.074803*%
%ADD30R,0.125984X0.074803*%
%ADD31O,0.009842X0.061024*%
%ADD32O,0.061024X0.009842*%
%ADD33R,0.059055X0.055118*%
%ADD34R,0.059055X0.074803*%
%ADD35R,0.094488X0.074803*%
%ADD36R,0.070866X0.051181*%
%ADD37R,0.035433X0.062992*%
%ADD38R,0.051181X0.057087*%
G04:AMPARAMS|DCode=39|XSize=21.654mil|YSize=49.213mil|CornerRadius=1.949mil|HoleSize=0mil|Usage=FLASHONLY|Rotation=180.000|XOffset=0mil|YOffset=0mil|HoleType=Round|Shape=RoundedRectangle|*
%AMROUNDEDRECTD39*
21,1,0.021654,0.045315,0,0,180.0*
21,1,0.017756,0.049213,0,0,180.0*
1,1,0.003898,-0.008878,0.022657*
1,1,0.003898,0.008878,0.022657*
1,1,0.003898,0.008878,-0.022657*
1,1,0.003898,-0.008878,-0.022657*
%
%ADD39ROUNDEDRECTD39*%
%ADD40R,0.066929X0.045276*%
%TA.AperFunction,Conductor*%
%ADD41C,0.040000*%
%ADD42C,0.014000*%
G36*
X3070000Y1728782D02*
X2211502D01*
X2209588Y1733401D01*
X2228971Y1752784D01*
X2232065Y1757415D01*
X2232730Y1760759D01*
X2232832Y1760772D01*
X2240129Y1763795D01*
X2246396Y1768604D01*
X2251205Y1774871D01*
X2254228Y1782168D01*
X2255259Y1790000D01*
X2254228Y1797832D01*
X2251205Y1805129D01*
X2250352Y1806241D01*
X2252563Y1810726D01*
X2274999D01*
X2275000Y1810726D01*
X2280463Y1811812D01*
X2285093Y1814907D01*
X2310913Y1840726D01*
X2365670D01*
X2365670Y1840726D01*
X2371133Y1841812D01*
X2375764Y1844907D01*
X2386583Y1855726D01*
X2439999D01*
X2440000Y1855726D01*
X2444919Y1856704D01*
X2447168Y1855772D01*
X2455000Y1854741D01*
X2462832Y1855772D01*
X2470129Y1858795D01*
X2476396Y1863604D01*
X2481205Y1869871D01*
X2484228Y1877168D01*
X2485259Y1885000D01*
X2484228Y1892832D01*
X2481205Y1900129D01*
X2476396Y1906396D01*
X2470129Y1911205D01*
X2462832Y1914228D01*
X2455000Y1915259D01*
X2447168Y1914228D01*
X2439871Y1911205D01*
X2438847Y1910420D01*
X2436978Y1911127D01*
X2434376Y1913291D01*
X2435259Y1920000D01*
X2434228Y1927832D01*
X2431205Y1935129D01*
X2426396Y1941396D01*
X2423625Y1943523D01*
X2425322Y1948523D01*
X2499329D01*
X2503228Y1945866D01*
Y1851063D01*
X2617716D01*
Y1907578D01*
X2652992D01*
Y1890709D01*
X2737953D01*
Y1907578D01*
X2758386D01*
Y1889921D01*
X2892559D01*
Y1913680D01*
X2923465D01*
X2929122Y1914806D01*
X2933918Y1918011D01*
X2945454Y1929546D01*
X2948659Y1934342D01*
X2949784Y1940000D01*
Y1953652D01*
X2950129Y1953795D01*
X2956396Y1958604D01*
X2961205Y1964871D01*
X2964228Y1972168D01*
X2965259Y1980000D01*
X2964228Y1987832D01*
X2961205Y1995129D01*
X2956396Y2001396D01*
X2950129Y2006205D01*
X2949784Y2006348D01*
Y2015000D01*
X2948659Y2020658D01*
X2945454Y2025454D01*
X2931989Y2038918D01*
X2927193Y2042123D01*
X2921535Y2043249D01*
X2892559D01*
Y2067008D01*
X2758386D01*
Y2049351D01*
X2737953D01*
Y2066220D01*
X2652992D01*
Y2049351D01*
X2617716D01*
Y2107283D01*
X2503228D01*
Y2012480D01*
X2545688D01*
Y2001596D01*
X2541868Y1997776D01*
X2221762D01*
X2218590Y2001641D01*
X2218796Y2002677D01*
X2217638Y2008499D01*
X2214952Y2012520D01*
X2217638Y2016540D01*
X2218796Y2022362D01*
X2217638Y2028184D01*
X2214952Y2032205D01*
X2217638Y2036225D01*
X2218796Y2042047D01*
X2217638Y2047869D01*
X2214952Y2051890D01*
X2217638Y2055910D01*
X2217802Y2056732D01*
X2206250D01*
X2203583Y2057263D01*
X2177992D01*
X2152401D01*
X2149734Y2056732D01*
X2138183D01*
X2138346Y2055910D01*
X2141032Y2051890D01*
X2138346Y2047869D01*
X2137188Y2042047D01*
X2138346Y2036225D01*
X2141032Y2032205D01*
X2138346Y2028184D01*
X2137188Y2022362D01*
X2138346Y2016540D01*
X2141032Y2012520D01*
X2138346Y2008499D01*
X2137188Y2002677D01*
X2138346Y1996855D01*
X2141032Y1992835D01*
X2138346Y1988814D01*
X2137188Y1982992D01*
X2138346Y1977170D01*
X2141032Y1973150D01*
X2138346Y1969129D01*
X2137188Y1963307D01*
X2138346Y1957485D01*
X2141032Y1953465D01*
X2138346Y1949444D01*
X2137188Y1943622D01*
X2137394Y1942586D01*
X2134222Y1938721D01*
X2102187D01*
X2075454Y1965454D01*
X2070658Y1968659D01*
X2065000Y1969784D01*
X2051348D01*
X2051205Y1970129D01*
X2046396Y1976396D01*
X2040129Y1981205D01*
X2032832Y1984228D01*
X2025000Y1985259D01*
X2017168Y1984228D01*
X2009871Y1981205D01*
X2003604Y1976396D01*
X1998795Y1970129D01*
X1995772Y1962832D01*
X1994741Y1955000D01*
X1995772Y1947168D01*
X1998795Y1939871D01*
X2003604Y1933604D01*
X2006203Y1931609D01*
X2006638Y1924973D01*
X1920652Y1838986D01*
X1917545Y1834336D01*
X1917082Y1834646D01*
X1916260Y1834810D01*
Y1823258D01*
X1915729Y1820591D01*
Y1795000D01*
Y1769409D01*
X1916260Y1766742D01*
Y1755190D01*
X1917082Y1755354D01*
X1921102Y1758040D01*
X1925123Y1755354D01*
X1930945Y1754196D01*
X1936767Y1755354D01*
X1940787Y1758040D01*
X1944808Y1755354D01*
X1950630Y1754196D01*
X1955588Y1755182D01*
X1957648Y1752889D01*
X1958536Y1751059D01*
X1939907Y1732429D01*
X1936812Y1727798D01*
X1935726Y1722336D01*
X1935726Y1722335D01*
Y1625001D01*
X1935726Y1625000D01*
X1936812Y1619537D01*
X1939907Y1614907D01*
X1956126Y1598687D01*
X1955772Y1597832D01*
X1954741Y1590000D01*
X1955772Y1582168D01*
X1958795Y1574871D01*
X1963604Y1568604D01*
X1969871Y1563795D01*
X1977168Y1560772D01*
X1985000Y1559741D01*
X1992832Y1560772D01*
X2000129Y1563795D01*
X2006396Y1568604D01*
X2011205Y1574871D01*
X2014228Y1582168D01*
X2015259Y1590000D01*
X2014228Y1597832D01*
X2011205Y1605129D01*
X2006396Y1611396D01*
X2000129Y1616205D01*
X1992832Y1619228D01*
X1985000Y1620259D01*
X1977168Y1619228D01*
X1976313Y1618874D01*
X1967589Y1627599D01*
X1969660Y1632599D01*
X2038583D01*
Y1660216D01*
X2118652D01*
X2118795Y1659871D01*
X2123604Y1653604D01*
X2129871Y1648795D01*
X2137168Y1645772D01*
X2145000Y1644741D01*
X2152832Y1645772D01*
X2160129Y1648795D01*
X2166396Y1653604D01*
X2171205Y1659871D01*
X2174228Y1667168D01*
X2175259Y1675000D01*
X2174228Y1682832D01*
X2171205Y1690129D01*
X2168853Y1693194D01*
X2171319Y1698194D01*
X2588678D01*
X2589673Y1693194D01*
X2584871Y1691205D01*
X2578604Y1686396D01*
X2573795Y1680129D01*
X2570772Y1672832D01*
X2569741Y1665000D01*
X2569906Y1663745D01*
X2502589Y1596427D01*
X2498168Y1589811D01*
X2496616Y1582008D01*
Y1533150D01*
X2492244D01*
Y1406850D01*
X2541772D01*
Y1533150D01*
X2537400D01*
Y1573561D01*
X2598745Y1634906D01*
X2600000Y1634741D01*
X2607832Y1635772D01*
X2615129Y1638795D01*
X2621396Y1643604D01*
X2626205Y1649871D01*
X2629228Y1657168D01*
X2630259Y1665000D01*
X2629228Y1672832D01*
X2626205Y1680129D01*
X2621396Y1686396D01*
X2615129Y1691205D01*
X2610327Y1693194D01*
X2611322Y1698194D01*
X3070000D01*
Y1295000D01*
X2348330D01*
X2346205Y1300129D01*
X2341396Y1306396D01*
X2335129Y1311205D01*
X2327832Y1314228D01*
X2320000Y1315259D01*
X2312168Y1314228D01*
X2304871Y1311205D01*
X2298604Y1306396D01*
X2293795Y1300129D01*
X2291670Y1295000D01*
X1892401D01*
Y1333583D01*
X1802097D01*
X1800612Y1333583D01*
X1799927Y1337024D01*
X1802671Y1340745D01*
X1806396Y1343604D01*
X1811205Y1349871D01*
X1814228Y1357168D01*
X1815259Y1365000D01*
X1814228Y1372832D01*
X1811205Y1380129D01*
X1806562Y1386181D01*
X1806838Y1387940D01*
X1807938Y1391181D01*
X1828465D01*
Y1415216D01*
X1842599D01*
Y1376417D01*
X1937401D01*
Y1455472D01*
X1842599D01*
Y1444784D01*
X1828465D01*
Y1456457D01*
X1741535D01*
Y1447284D01*
X1619784D01*
Y1545265D01*
X1622493Y1547074D01*
X1625133Y1551027D01*
X1626061Y1555689D01*
Y1601004D01*
X1625133Y1605666D01*
X1622493Y1609619D01*
X1618540Y1612259D01*
X1613878Y1613187D01*
X1596122D01*
X1591460Y1612259D01*
X1587507Y1609619D01*
X1584867Y1605666D01*
X1583939Y1601004D01*
Y1555689D01*
X1584867Y1551027D01*
X1587507Y1547074D01*
X1590216Y1545265D01*
Y1447284D01*
X1572772D01*
X1567114Y1446159D01*
X1562318Y1442954D01*
X1544546Y1425182D01*
X1541341Y1420386D01*
X1540216Y1414728D01*
Y1404735D01*
X1537507Y1402926D01*
X1534867Y1398973D01*
X1533939Y1394311D01*
Y1348996D01*
X1534867Y1344334D01*
X1537507Y1340381D01*
X1541460Y1337741D01*
X1546122Y1336813D01*
X1563878D01*
X1568540Y1337741D01*
X1572493Y1340381D01*
X1575133Y1344334D01*
X1576061Y1348996D01*
Y1394311D01*
X1575133Y1398973D01*
X1572493Y1402926D01*
X1570829Y1404037D01*
X1570486Y1409306D01*
X1578896Y1417716D01*
X1741535D01*
Y1391181D01*
X1762062D01*
X1763162Y1387940D01*
X1763438Y1386181D01*
X1758795Y1380129D01*
X1755772Y1372832D01*
X1754741Y1365000D01*
X1755772Y1357168D01*
X1758795Y1349871D01*
X1763604Y1343604D01*
X1769871Y1338795D01*
X1777168Y1335772D01*
X1785000Y1334741D01*
X1790576Y1335475D01*
X1795331Y1334499D01*
Y1334499D01*
X1795331Y1334499D01*
D01*
X1797598Y1332335D01*
X1797599Y1329831D01*
Y1295000D01*
X1675392D01*
Y1345633D01*
X1676061Y1348996D01*
Y1394311D01*
X1675133Y1398973D01*
X1672493Y1402926D01*
X1668540Y1405567D01*
X1663878Y1406494D01*
X1646122D01*
X1641460Y1405567D01*
X1637507Y1402926D01*
X1634867Y1398973D01*
X1633939Y1394311D01*
Y1348996D01*
X1634608Y1345633D01*
Y1295000D01*
X1625392D01*
Y1345633D01*
X1626061Y1348996D01*
Y1394311D01*
X1625133Y1398973D01*
X1622493Y1402926D01*
X1618540Y1405567D01*
X1613878Y1406494D01*
X1596122D01*
X1591460Y1405567D01*
X1587507Y1402926D01*
X1584867Y1398973D01*
X1583939Y1394311D01*
Y1348996D01*
X1584608Y1345633D01*
Y1295000D01*
X1515000D01*
Y2395000D01*
X1780726D01*
X1780726Y2394999D01*
Y2197142D01*
X1777962Y2195912D01*
X1775726Y2195754D01*
X1771396Y2201396D01*
X1765129Y2206205D01*
X1757832Y2209228D01*
X1750000Y2210259D01*
X1742168Y2209228D01*
X1734871Y2206205D01*
X1728604Y2201396D01*
X1723795Y2195129D01*
X1720772Y2187832D01*
X1719741Y2180000D01*
X1720772Y2172168D01*
X1723795Y2164871D01*
X1728604Y2158604D01*
X1734871Y2153795D01*
X1742168Y2150772D01*
X1750000Y2149741D01*
X1757832Y2150772D01*
X1765129Y2153795D01*
X1771396Y2158604D01*
X1775726Y2164246D01*
X1777962Y2164088D01*
X1780726Y2162858D01*
Y2035001D01*
X1780726Y2035000D01*
X1781812Y2029537D01*
X1784907Y2024907D01*
X1791841Y2017973D01*
X1790917Y2011825D01*
X1744546Y1965454D01*
X1741341Y1960658D01*
X1740216Y1955000D01*
Y1916124D01*
X1544546Y1720454D01*
X1541341Y1715658D01*
X1540216Y1710000D01*
Y1611428D01*
X1537507Y1609619D01*
X1534867Y1605666D01*
X1533939Y1601004D01*
Y1555689D01*
X1534867Y1551027D01*
X1537507Y1547074D01*
X1541460Y1544434D01*
X1546122Y1543506D01*
X1563878D01*
X1568540Y1544434D01*
X1572493Y1547074D01*
X1575133Y1551027D01*
X1576061Y1555689D01*
Y1601004D01*
X1575133Y1605666D01*
X1572493Y1609619D01*
X1569784Y1611428D01*
Y1703876D01*
X1685597Y1819689D01*
X1690216Y1817775D01*
Y1611428D01*
X1687507Y1609619D01*
X1684867Y1605666D01*
X1683939Y1601004D01*
Y1555689D01*
X1684867Y1551027D01*
X1687507Y1547074D01*
X1691460Y1544434D01*
X1696122Y1543506D01*
X1713878D01*
X1718540Y1544434D01*
X1722493Y1547074D01*
X1725133Y1551027D01*
X1726061Y1555689D01*
Y1601004D01*
X1725133Y1605666D01*
X1722493Y1609619D01*
X1719784Y1611428D01*
Y1637045D01*
X1724268Y1639257D01*
X1724871Y1638795D01*
X1732168Y1635772D01*
X1740000Y1634741D01*
X1747832Y1635772D01*
X1755129Y1638795D01*
X1761396Y1643604D01*
X1766205Y1649871D01*
X1769228Y1657168D01*
X1770259Y1665000D01*
X1769228Y1672832D01*
X1766205Y1680129D01*
X1761396Y1686396D01*
X1755129Y1691205D01*
X1747832Y1694228D01*
X1740000Y1695259D01*
X1732168Y1694228D01*
X1724871Y1691205D01*
X1724268Y1690743D01*
X1719784Y1692955D01*
Y1827006D01*
X1784454Y1891676D01*
X1787659Y1896472D01*
X1788784Y1902130D01*
Y1941006D01*
X1813285Y1965507D01*
X1815617Y1965402D01*
X1820259Y1963307D01*
X1821417Y1957485D01*
X1824103Y1953465D01*
X1821417Y1949444D01*
X1820259Y1943622D01*
X1821417Y1937800D01*
X1824103Y1933780D01*
X1821417Y1929759D01*
X1820259Y1923937D01*
X1821417Y1918115D01*
X1824103Y1914094D01*
X1821417Y1910074D01*
X1820259Y1904252D01*
X1821417Y1898430D01*
X1824103Y1894409D01*
X1821417Y1890389D01*
X1820259Y1884567D01*
X1821417Y1878745D01*
X1824103Y1874724D01*
X1821417Y1870704D01*
X1820259Y1864882D01*
X1821417Y1859060D01*
X1824103Y1855039D01*
X1821417Y1851019D01*
X1820259Y1845197D01*
X1821417Y1839375D01*
X1824715Y1834439D01*
X1829650Y1831141D01*
X1835472Y1829983D01*
X1886654D01*
X1892476Y1831141D01*
X1895863Y1833405D01*
X1899468Y1829800D01*
X1897204Y1826413D01*
X1896046Y1820591D01*
Y1800000D01*
X1906260D01*
Y1834810D01*
X1905438Y1834646D01*
X1902051Y1832383D01*
X1898446Y1835988D01*
X1900709Y1839375D01*
X1901867Y1845197D01*
X1900709Y1851019D01*
X1898023Y1855039D01*
X1900709Y1859060D01*
X1901867Y1864882D01*
X1900709Y1870704D01*
X1898023Y1874724D01*
X1900709Y1878745D01*
X1901867Y1884567D01*
X1900709Y1890389D01*
X1898023Y1894409D01*
X1900709Y1898430D01*
X1901867Y1904252D01*
X1900709Y1910074D01*
X1898023Y1914094D01*
X1900709Y1918115D01*
X1901867Y1923937D01*
X1900709Y1929759D01*
X1898023Y1933780D01*
X1900709Y1937800D01*
X1901867Y1943622D01*
X1900709Y1949444D01*
X1898023Y1953465D01*
X1900709Y1957485D01*
X1901867Y1963307D01*
X1900709Y1969129D01*
X1898023Y1973150D01*
X1900709Y1977170D01*
X1901867Y1982992D01*
X1900709Y1988814D01*
X1898023Y1992835D01*
X1900709Y1996855D01*
X1901867Y2002677D01*
X1900709Y2008499D01*
X1900636Y2008609D01*
X1901513Y2010508D01*
X1907514Y2011579D01*
X1914546Y2004546D01*
X1919342Y2001341D01*
X1925000Y2000216D01*
X1933652D01*
X1933795Y1999871D01*
X1938604Y1993604D01*
X1944871Y1988795D01*
X1952168Y1985772D01*
X1960000Y1984741D01*
X1967832Y1985772D01*
X1975129Y1988795D01*
X1981396Y1993604D01*
X1986205Y1999871D01*
X1986348Y2000216D01*
X2044552D01*
X2050210Y2001341D01*
X2055006Y2004546D01*
X2118403Y2067943D01*
X2121510Y2072593D01*
X2121973Y2072283D01*
X2122795Y2072120D01*
Y2083671D01*
X2123326Y2086339D01*
Y2111929D01*
Y2137520D01*
X2122795Y2140188D01*
Y2151739D01*
X2121973Y2151575D01*
X2117953Y2148889D01*
X2113932Y2151575D01*
X2108110Y2152733D01*
X2102288Y2151575D01*
X2098268Y2148889D01*
X2094247Y2151575D01*
X2088425Y2152733D01*
X2082603Y2151575D01*
X2078583Y2148889D01*
X2074562Y2151575D01*
X2068740Y2152733D01*
X2067195Y2152426D01*
X2063329Y2155598D01*
Y2273142D01*
X2071944Y2281757D01*
X2071944Y2281757D01*
X2075038Y2286388D01*
X2076125Y2291850D01*
X2076125Y2291851D01*
Y2298504D01*
X2089567D01*
Y2381496D01*
X2034134D01*
Y2298504D01*
X2041246D01*
X2043317Y2293504D01*
X2038962Y2289149D01*
X2035867Y2284518D01*
X2034781Y2279055D01*
X2034781Y2279055D01*
Y2155598D01*
X2030916Y2152426D01*
X2029370Y2152733D01*
X2023548Y2151575D01*
X2019528Y2148889D01*
X2015507Y2151575D01*
X2009685Y2152733D01*
X2003863Y2151575D01*
X1999842Y2148889D01*
X1995822Y2151575D01*
X1990000Y2152733D01*
X1984178Y2151575D01*
X1980157Y2148889D01*
X1976137Y2151575D01*
X1970315Y2152733D01*
X1964493Y2151575D01*
X1960472Y2148889D01*
X1956452Y2151575D01*
X1950630Y2152733D01*
X1944808Y2151575D01*
X1940787Y2148889D01*
X1936767Y2151575D01*
X1930945Y2152733D01*
X1929399Y2152426D01*
X1925534Y2155598D01*
Y2395000D01*
X2373954D01*
X2375868Y2390381D01*
X2325078Y2339590D01*
X2320000Y2340259D01*
X2312168Y2339228D01*
X2304871Y2336205D01*
X2298604Y2331396D01*
X2293795Y2325129D01*
X2290772Y2317832D01*
X2289741Y2310000D01*
X2290772Y2302168D01*
X2293795Y2294871D01*
X2298604Y2288604D01*
X2304871Y2283795D01*
X2312168Y2280772D01*
X2320000Y2279741D01*
X2327832Y2280772D01*
X2335129Y2283795D01*
X2341396Y2288604D01*
X2346205Y2294871D01*
X2349228Y2302168D01*
X2350259Y2310000D01*
X2349590Y2315078D01*
X2429513Y2395000D01*
X3070000D01*
Y1728782D01*
D02*
G37*
G36*
X1896986Y2142241D02*
X1896046Y2137520D01*
Y2086338D01*
X1897204Y2080517D01*
X1899468Y2077129D01*
X1895863Y2073524D01*
X1892476Y2075788D01*
X1886654Y2076946D01*
X1866063D01*
Y2066732D01*
X1900872D01*
X1900709Y2067554D01*
X1898446Y2070941D01*
X1902051Y2074546D01*
X1905438Y2072283D01*
X1911260Y2071125D01*
X1917082Y2072283D01*
X1921102Y2074970D01*
X1925123Y2072283D01*
X1930945Y2071125D01*
X1936767Y2072283D01*
X1940787Y2074970D01*
X1944808Y2072283D01*
X1950630Y2071125D01*
X1956452Y2072283D01*
X1960472Y2074970D01*
X1964493Y2072283D01*
X1970315Y2071125D01*
X1976137Y2072283D01*
X1980157Y2074970D01*
X1984178Y2072283D01*
X1990000Y2071125D01*
X1995822Y2072283D01*
X1999842Y2074970D01*
X2003863Y2072283D01*
X2009685Y2071125D01*
X2015507Y2072283D01*
X2019528Y2074970D01*
X2023548Y2072283D01*
X2029370Y2071125D01*
X2035192Y2072283D01*
X2039213Y2074970D01*
X2043233Y2072283D01*
X2049055Y2071125D01*
X2054877Y2072283D01*
X2058898Y2074970D01*
X2062918Y2072283D01*
X2068740Y2071125D01*
X2073681Y2072108D01*
X2075792Y2069725D01*
X2076629Y2067984D01*
X2038429Y2029784D01*
X1986348D01*
X1986205Y2030129D01*
X1981396Y2036396D01*
X1975129Y2041205D01*
X1967832Y2044228D01*
X1960000Y2045259D01*
X1952168Y2044228D01*
X1944871Y2041205D01*
X1938604Y2036396D01*
X1935215Y2031979D01*
X1929826Y2031557D01*
X1929085Y2031823D01*
X1908568Y2052340D01*
X1903772Y2055545D01*
X1900756Y2056145D01*
X1900872Y2056732D01*
X1889321D01*
X1886654Y2057263D01*
X1861063D01*
X1835472D01*
X1832805Y2056732D01*
X1821254D01*
X1821417Y2055910D01*
X1824103Y2051890D01*
X1821417Y2047869D01*
X1820259Y2042047D01*
X1820329Y2041694D01*
X1816994Y2037533D01*
X1812796Y2037391D01*
X1809274Y2040913D01*
Y2389087D01*
X1815187Y2395000D01*
X1896986D01*
Y2142241D01*
D02*
G37*
G36*
X2137394Y1905288D02*
X2137188Y1904252D01*
X2138346Y1898430D01*
X2141032Y1894409D01*
X2138346Y1890389D01*
X2137188Y1884567D01*
X2138346Y1878745D01*
X2141032Y1874724D01*
X2138346Y1870704D01*
X2137188Y1864882D01*
X2138346Y1859060D01*
X2141032Y1855039D01*
X2138346Y1851019D01*
X2137188Y1845197D01*
X2137372Y1844274D01*
X2135002Y1839277D01*
X2135000Y1839274D01*
X2133707Y1839017D01*
X2129537Y1838188D01*
X2125196Y1835287D01*
X2121973Y1834646D01*
X2117953Y1831960D01*
X2113932Y1834646D01*
X2108110Y1835804D01*
X2102288Y1834646D01*
X2098268Y1831960D01*
X2094247Y1834646D01*
X2088425Y1835804D01*
X2082603Y1834646D01*
X2078583Y1831960D01*
X2074562Y1834646D01*
X2068740Y1835804D01*
X2062918Y1834646D01*
X2058898Y1831960D01*
X2054877Y1834646D01*
X2049055Y1835804D01*
X2043479Y1834695D01*
X2043220Y1834655D01*
X2043022Y1834788D01*
X2042882Y1840907D01*
X2046396Y1843604D01*
X2051205Y1849871D01*
X2054228Y1857168D01*
X2054839Y1861812D01*
X2060067Y1863213D01*
X2063604Y1858604D01*
X2069871Y1853795D01*
X2077168Y1850772D01*
X2080000Y1850399D01*
Y1880000D01*
X2085000D01*
Y1885000D01*
X2114601D01*
X2114228Y1887832D01*
X2111205Y1895129D01*
X2106396Y1901396D01*
X2102804Y1904153D01*
X2104501Y1909153D01*
X2134222D01*
X2137394Y1905288D01*
D02*
G37*
%LPC*%
G36*
X2195866Y2381496D02*
X2140433D01*
Y2298504D01*
X2152910D01*
X2155283Y2293504D01*
X2152105Y2288749D01*
X2150553Y2280945D01*
Y2257401D01*
X2131417D01*
Y2162599D01*
X2210472D01*
Y2257401D01*
X2191337D01*
Y2272498D01*
X2228745Y2309906D01*
X2230000Y2309741D01*
X2237832Y2310772D01*
X2245129Y2313795D01*
X2251396Y2318604D01*
X2256205Y2324871D01*
X2259228Y2332168D01*
X2260259Y2340000D01*
X2259228Y2347832D01*
X2256205Y2355129D01*
X2251396Y2361396D01*
X2245129Y2366205D01*
X2237832Y2369228D01*
X2230000Y2370259D01*
X2222168Y2369228D01*
X2214871Y2366205D01*
X2208604Y2361396D01*
X2207833Y2360392D01*
X2195866D01*
Y2381496D01*
D02*
G37*
G36*
X2328583Y2257401D02*
X2294055D01*
Y2215000D01*
X2328583D01*
Y2257401D01*
D02*
G37*
G36*
X2284055D02*
X2249528D01*
Y2215000D01*
X2284055D01*
Y2257401D01*
D02*
G37*
G36*
X2328583Y2205000D02*
X2294055D01*
Y2162599D01*
X2328583D01*
Y2205000D01*
D02*
G37*
G36*
X2284055D02*
X2249528D01*
Y2162599D01*
X2284055D01*
Y2205000D01*
D02*
G37*
G36*
X2595000Y2210259D02*
X2587168Y2209228D01*
X2579871Y2206205D01*
X2573604Y2201396D01*
X2568795Y2195129D01*
X2565772Y2187832D01*
X2564741Y2180000D01*
X2565772Y2172168D01*
X2568795Y2164871D01*
X2573604Y2158604D01*
X2579871Y2153795D01*
X2587168Y2150772D01*
X2595000Y2149741D01*
X2602832Y2150772D01*
X2610129Y2153795D01*
X2616396Y2158604D01*
X2621205Y2164871D01*
X2624228Y2172168D01*
X2625259Y2180000D01*
X2624228Y2187832D01*
X2621205Y2195129D01*
X2616396Y2201396D01*
X2610129Y2206205D01*
X2602832Y2209228D01*
X2595000Y2210259D01*
D02*
G37*
G36*
X2132795Y2151739D02*
Y2116929D01*
X2143009D01*
Y2137520D01*
X2141851Y2143342D01*
X2138553Y2148277D01*
X2133617Y2151575D01*
X2132795Y2151739D01*
D02*
G37*
G36*
X1727401Y2128583D02*
X1685000D01*
Y2094055D01*
X1727401D01*
Y2128583D01*
D02*
G37*
G36*
X1675000D02*
X1632599D01*
Y2094055D01*
X1675000D01*
Y2128583D01*
D02*
G37*
G36*
X2203583Y2076946D02*
X2182992D01*
Y2066732D01*
X2217802D01*
X2217638Y2067554D01*
X2214340Y2072490D01*
X2209405Y2075788D01*
X2203583Y2076946D01*
D02*
G37*
G36*
X2143009Y2106929D02*
X2132795D01*
Y2072120D01*
X2133617Y2072283D01*
X2137005Y2074546D01*
X2140610Y2070942D01*
X2138346Y2067554D01*
X2138183Y2066732D01*
X2172992D01*
Y2076946D01*
X2152401D01*
X2146579Y2075788D01*
X2143192Y2073524D01*
X2139587Y2077129D01*
X2141851Y2080517D01*
X2143009Y2086338D01*
Y2106929D01*
D02*
G37*
G36*
X2270000Y2084601D02*
Y2060000D01*
X2294601D01*
X2294228Y2062832D01*
X2291205Y2070129D01*
X2286396Y2076396D01*
X2280129Y2081205D01*
X2272832Y2084228D01*
X2270000Y2084601D01*
D02*
G37*
G36*
X2260000D02*
X2257168Y2084228D01*
X2249871Y2081205D01*
X2243604Y2076396D01*
X2238795Y2070129D01*
X2235772Y2062832D01*
X2235399Y2060000D01*
X2260000D01*
Y2084601D01*
D02*
G37*
G36*
X1727401Y2084055D02*
X1685000D01*
Y2049528D01*
X1727401D01*
Y2084055D01*
D02*
G37*
G36*
X1675000D02*
X1632599D01*
Y2049528D01*
X1675000D01*
Y2084055D01*
D02*
G37*
G36*
X2294601Y2050000D02*
X2270000D01*
Y2025399D01*
X2272832Y2025772D01*
X2280129Y2028795D01*
X2286396Y2033604D01*
X2291205Y2039871D01*
X2294228Y2047168D01*
X2294601Y2050000D01*
D02*
G37*
G36*
X2260000D02*
X2235399D01*
X2235772Y2047168D01*
X2238795Y2039871D01*
X2243604Y2033604D01*
X2249871Y2028795D01*
X2257168Y2025772D01*
X2260000Y2025399D01*
Y2050000D01*
D02*
G37*
G36*
X1955000Y1964601D02*
Y1940000D01*
X1979601D01*
X1979228Y1942832D01*
X1976205Y1950129D01*
X1971396Y1956396D01*
X1965129Y1961205D01*
X1957832Y1964228D01*
X1955000Y1964601D01*
D02*
G37*
G36*
X1945000D02*
X1942168Y1964228D01*
X1934871Y1961205D01*
X1928604Y1956396D01*
X1923795Y1950129D01*
X1920772Y1942832D01*
X1920399Y1940000D01*
X1945000D01*
Y1964601D01*
D02*
G37*
G36*
X1727401Y2010472D02*
X1632599D01*
Y1931417D01*
X1727401D01*
Y2010472D01*
D02*
G37*
G36*
X1979601Y1930000D02*
X1955000D01*
Y1905399D01*
X1957832Y1905772D01*
X1965129Y1908795D01*
X1971396Y1913604D01*
X1976205Y1919871D01*
X1979228Y1927168D01*
X1979601Y1930000D01*
D02*
G37*
G36*
X1945000D02*
X1920399D01*
X1920772Y1927168D01*
X1923795Y1919871D01*
X1928604Y1913604D01*
X1934871Y1908795D01*
X1942168Y1905772D01*
X1945000Y1905399D01*
Y1930000D01*
D02*
G37*
G36*
X1605000Y1924601D02*
Y1900000D01*
X1629601D01*
X1629228Y1902832D01*
X1626205Y1910129D01*
X1621396Y1916396D01*
X1615129Y1921205D01*
X1607832Y1924228D01*
X1605000Y1924601D01*
D02*
G37*
G36*
X1595000D02*
X1592168Y1924228D01*
X1584871Y1921205D01*
X1578604Y1916396D01*
X1573795Y1910129D01*
X1570772Y1902832D01*
X1570399Y1900000D01*
X1595000D01*
Y1924601D01*
D02*
G37*
G36*
X1629601Y1890000D02*
X1605000D01*
Y1865399D01*
X1607832Y1865772D01*
X1615129Y1868795D01*
X1621396Y1873604D01*
X1626205Y1879871D01*
X1629228Y1887168D01*
X1629601Y1890000D01*
D02*
G37*
G36*
X1595000D02*
X1570399D01*
X1570772Y1887168D01*
X1573795Y1879871D01*
X1578604Y1873604D01*
X1584871Y1868795D01*
X1592168Y1865772D01*
X1595000Y1865399D01*
Y1890000D01*
D02*
G37*
G36*
X1803458Y1811142D02*
Y1786542D01*
X1828059D01*
X1827686Y1789373D01*
X1824663Y1796671D01*
X1819855Y1802938D01*
X1813588Y1807747D01*
X1806290Y1810770D01*
X1803458Y1811142D01*
D02*
G37*
G36*
X1793458D02*
X1790627Y1810770D01*
X1783329Y1807747D01*
X1777062Y1802938D01*
X1772253Y1796671D01*
X1769230Y1789373D01*
X1768858Y1786542D01*
X1793458D01*
Y1811142D01*
D02*
G37*
G36*
X2325000Y1825259D02*
X2317168Y1824228D01*
X2309871Y1821205D01*
X2303604Y1816396D01*
X2298795Y1810129D01*
X2295772Y1802832D01*
X2294741Y1795000D01*
X2295772Y1787168D01*
X2298795Y1779871D01*
X2303604Y1773604D01*
X2309871Y1768795D01*
X2317168Y1765772D01*
X2325000Y1764741D01*
X2332832Y1765772D01*
X2340129Y1768795D01*
X2346396Y1773604D01*
X2351205Y1779871D01*
X2354228Y1787168D01*
X2355259Y1795000D01*
X2354228Y1802832D01*
X2351205Y1810129D01*
X2346396Y1816396D01*
X2340129Y1821205D01*
X2332832Y1824228D01*
X2325000Y1825259D01*
D02*
G37*
G36*
X1906260Y1790000D02*
X1896046D01*
Y1769409D01*
X1897204Y1763587D01*
X1900502Y1758652D01*
X1905438Y1755354D01*
X1906260Y1755190D01*
Y1790000D01*
D02*
G37*
G36*
X1828059Y1776542D02*
X1803458D01*
Y1751941D01*
X1806290Y1752314D01*
X1813588Y1755337D01*
X1819855Y1760145D01*
X1824663Y1766412D01*
X1827686Y1773710D01*
X1828059Y1776542D01*
D02*
G37*
G36*
X1793458D02*
X1768858D01*
X1769230Y1773710D01*
X1772253Y1766412D01*
X1777062Y1760145D01*
X1783329Y1755337D01*
X1790627Y1752314D01*
X1793458Y1751941D01*
Y1776542D01*
D02*
G37*
G36*
X1920472Y1727401D02*
X1885945D01*
Y1685000D01*
X1920472D01*
Y1727401D01*
D02*
G37*
G36*
X1875945D02*
X1841417D01*
Y1685000D01*
X1875945D01*
Y1727401D01*
D02*
G37*
G36*
X1920472Y1675000D02*
X1885945D01*
Y1632599D01*
X1920472D01*
Y1675000D01*
D02*
G37*
G36*
X1875945D02*
X1841417D01*
Y1632599D01*
X1875945D01*
Y1675000D01*
D02*
G37*
G36*
X1663878Y1613187D02*
X1660000D01*
Y1583347D01*
X1676061D01*
Y1601004D01*
X1675133Y1605666D01*
X1672493Y1609619D01*
X1668540Y1612259D01*
X1663878Y1613187D01*
D02*
G37*
G36*
X1650000D02*
X1646122D01*
X1641460Y1612259D01*
X1637507Y1609619D01*
X1634867Y1605666D01*
X1633939Y1601004D01*
Y1583347D01*
X1650000D01*
Y1613187D01*
D02*
G37*
G36*
X1676061Y1573347D02*
X1660000D01*
Y1543506D01*
X1663878D01*
X1668540Y1544434D01*
X1672493Y1547074D01*
X1675133Y1551027D01*
X1676061Y1555689D01*
Y1573347D01*
D02*
G37*
G36*
X1650000D02*
X1633939D01*
Y1555689D01*
X1634867Y1551027D01*
X1637507Y1547074D01*
X1641460Y1544434D01*
X1646122Y1543506D01*
X1650000D01*
Y1573347D01*
D02*
G37*
G36*
X1937401Y1573583D02*
X1895000D01*
Y1539055D01*
X1937401D01*
Y1573583D01*
D02*
G37*
G36*
X1885000D02*
X1842599D01*
Y1539055D01*
X1885000D01*
Y1573583D01*
D02*
G37*
G36*
X1828465Y1558819D02*
X1790000D01*
Y1531181D01*
X1828465D01*
Y1558819D01*
D02*
G37*
G36*
X1780000D02*
X1741535D01*
Y1531181D01*
X1780000D01*
Y1558819D01*
D02*
G37*
G36*
X1937401Y1529055D02*
X1895000D01*
Y1494528D01*
X1937401D01*
Y1529055D01*
D02*
G37*
G36*
X1885000D02*
X1842599D01*
Y1494528D01*
X1885000D01*
Y1529055D01*
D02*
G37*
G36*
X1828465Y1521181D02*
X1790000D01*
Y1493543D01*
X1828465D01*
Y1521181D01*
D02*
G37*
G36*
X1780000D02*
X1741535D01*
Y1493543D01*
X1780000D01*
Y1521181D01*
D02*
G37*
G36*
X2417756Y1533150D02*
X2368228D01*
Y1490392D01*
X2327167D01*
X2326396Y1491396D01*
X2320129Y1496205D01*
X2312832Y1499228D01*
X2305000Y1500259D01*
X2297168Y1499228D01*
X2289871Y1496205D01*
X2283604Y1491396D01*
X2278795Y1485129D01*
X2275772Y1477832D01*
X2274741Y1470000D01*
X2275772Y1462168D01*
X2278795Y1454871D01*
X2283604Y1448604D01*
X2289871Y1443795D01*
X2297168Y1440772D01*
X2305000Y1439741D01*
X2312832Y1440772D01*
X2320129Y1443795D01*
X2326396Y1448604D01*
X2327167Y1449608D01*
X2368228D01*
Y1406850D01*
X2417756D01*
Y1533150D01*
D02*
G37*
G36*
X1713878Y1406494D02*
X1696122D01*
X1691460Y1405567D01*
X1687507Y1402926D01*
X1684867Y1398973D01*
X1683939Y1394311D01*
Y1348996D01*
X1684867Y1344334D01*
X1687507Y1340381D01*
X1691460Y1337741D01*
X1696122Y1336813D01*
X1713878D01*
X1718540Y1337741D01*
X1722493Y1340381D01*
X1725133Y1344334D01*
X1726061Y1348996D01*
Y1394311D01*
X1725133Y1398973D01*
X1722493Y1402926D01*
X1718540Y1405567D01*
X1713878Y1406494D01*
D02*
G37*
G36*
X1855000Y2219601D02*
Y2195000D01*
X1879601D01*
X1879228Y2197832D01*
X1876205Y2205129D01*
X1871396Y2211396D01*
X1865129Y2216205D01*
X1857832Y2219228D01*
X1855000Y2219601D01*
D02*
G37*
G36*
X1845000D02*
X1842168Y2219228D01*
X1834871Y2216205D01*
X1828604Y2211396D01*
X1823795Y2205129D01*
X1820772Y2197832D01*
X1820399Y2195000D01*
X1845000D01*
Y2219601D01*
D02*
G37*
G36*
X1879601Y2185000D02*
X1855000D01*
Y2160399D01*
X1857832Y2160772D01*
X1865129Y2163795D01*
X1871396Y2168604D01*
X1876205Y2174871D01*
X1879228Y2182168D01*
X1879601Y2185000D01*
D02*
G37*
G36*
X1845000D02*
X1820399D01*
X1820772Y2182168D01*
X1823795Y2174871D01*
X1828604Y2168604D01*
X1834871Y2163795D01*
X1842168Y2160772D01*
X1845000Y2160399D01*
Y2185000D01*
D02*
G37*
G36*
X1856063Y2076946D02*
X1835472D01*
X1829650Y2075788D01*
X1824715Y2072490D01*
X1821417Y2067554D01*
X1821254Y2066732D01*
X1856063D01*
Y2076946D01*
D02*
G37*
G36*
X2114601Y1875000D02*
X2090000D01*
Y1850399D01*
X2092832Y1850772D01*
X2100129Y1853795D01*
X2106396Y1858604D01*
X2111205Y1864871D01*
X2114228Y1872168D01*
X2114601Y1875000D01*
D02*
G37*
%LPD*%
D11*
X1941732Y1230000D02*
X1945591Y1226142D01*
X1856716Y1230000D02*
X1941732D01*
X1945591Y1226142D02*
X1949449D01*
X1845000Y1241716D02*
X1856716Y1230000D01*
X1845000Y1241716D02*
Y1293071D01*
X2170945Y2280945D02*
X2230000Y2340000D01*
X2170945Y2210000D02*
Y2280945D01*
X2168150Y2340000D02*
X2230000D01*
X3525157Y2236024D02*
X3535000D01*
X3472961Y2183827D02*
X3525157Y2236024D01*
X3438827Y2183827D02*
X3472961D01*
X3435000Y2180000D02*
X3438827Y2183827D01*
X3535000Y2004055D02*
Y2113976D01*
X2517008Y945000D02*
X2538284D01*
X2595000Y1149588D02*
Y1155000D01*
X2562889Y1117477D02*
X2595000Y1149588D01*
X2562889Y969605D02*
Y1117477D01*
X2538284Y945000D02*
X2562889Y969605D01*
X2350000Y945000D02*
X2392992D01*
X2320000Y915000D02*
X2350000Y945000D01*
X2320000Y775000D02*
Y915000D01*
X2305000Y1470000D02*
X2392992D01*
X2517008Y1582008D02*
X2600000Y1665000D01*
X2517008Y1470000D02*
Y1582008D01*
X2591173Y2681173D02*
X2595000Y2685000D01*
X2545780Y2681173D02*
X2591173D01*
X2392992Y2528386D02*
X2545780Y2681173D01*
X2392992Y2490000D02*
Y2528386D01*
X1400000Y371716D02*
Y850000D01*
X2019438Y360000D02*
X2031153Y371716D01*
X1411716Y360000D02*
X2019438D01*
X2031153Y371716D02*
Y460000D01*
X1400000Y371716D02*
X1411716Y360000D01*
X1400000Y850000D02*
X1655000Y1105000D01*
Y1376654D01*
X1410000Y315000D02*
X2019438D01*
X2031153Y303284D01*
Y210000D02*
Y303284D01*
X1370000Y355000D02*
Y862426D01*
Y355000D02*
X1410000Y315000D01*
X1370000Y862426D02*
X1605000Y1097426D01*
Y1376654D01*
D12*
X1845000Y1075000D02*
Y1176929D01*
X3030315Y890945D02*
X3190000D01*
X2995000Y926260D02*
X3030315Y890945D01*
X2800000Y891929D02*
X2960669D01*
X2995000Y926260D01*
X2765000Y430000D02*
X2856350Y338650D01*
X2675000Y590000D02*
X2765000Y500000D01*
X2675000Y590000D02*
Y990497D01*
X2692574Y1008071D01*
X2800000D01*
X2856350Y210000D02*
Y338650D01*
X2765000Y430000D02*
Y500000D01*
X2830354Y1170354D02*
X2905236D01*
X2800000Y1140000D02*
X2830354Y1170354D01*
X2800000Y1008071D02*
Y1140000D01*
X1713674Y2373673D02*
X2293752Y2953752D01*
Y3035000D01*
X1949449Y1226142D02*
X1949724Y1225866D01*
Y1110276D02*
Y1225866D01*
Y1110276D02*
X1950000Y1110000D01*
X2130551Y1226142D02*
Y1300551D01*
X2040000Y993858D02*
Y1226142D01*
D13*
X2109252Y1904252D02*
X2177992D01*
X2085000Y1880000D02*
X2109252Y1904252D01*
X2218877Y1783877D02*
X2225000Y1790000D01*
X2218877Y1762877D02*
Y1783877D01*
X2188488Y1732488D02*
X2218877Y1762877D01*
X2061000Y1744000D02*
X2061620D01*
X2073132Y1732488D01*
X2188488D01*
X2049055Y1755945D02*
Y1795000D01*
Y1755945D02*
X2061000Y1744000D01*
X2069093Y1761983D02*
Y1794648D01*
Y1761983D02*
X2080588Y1750488D01*
X2135633D01*
X2068740Y1795000D02*
X2069093Y1794648D01*
X2135633Y1750488D02*
X2170000Y1784856D01*
Y1790000D01*
X2135000Y1825000D02*
X2275000D01*
X2127795Y1795000D02*
Y1820092D01*
X2128646Y1820943D01*
X2130943D01*
X2631390Y520000D02*
X2691390Y460000D01*
X2228371Y520000D02*
X2631390D01*
X2184186Y564186D02*
X2228371Y520000D01*
X1950000Y1722336D02*
X1989648Y1761983D01*
X1950000Y1625000D02*
X1985000Y1590000D01*
X1950000Y1625000D02*
Y1722336D01*
X1989648Y1761983D02*
Y1794648D01*
X1990000Y1795000D01*
X2365670Y1855000D02*
X2380670Y1870000D01*
X2440000D01*
X2455000Y1885000D01*
X2305000Y1855000D02*
X2365670D01*
X2358000Y1873000D02*
X2405000Y1920000D01*
X2297544Y1873000D02*
X2358000D01*
X2130943Y1820943D02*
X2135000Y1825000D01*
X2290088Y1891000D02*
X2311000D01*
X2269741Y1845197D02*
X2297544Y1873000D01*
X2177992Y1845197D02*
X2269741D01*
X2263970Y1864882D02*
X2290088Y1891000D01*
X2311000D02*
X2340000Y1920000D01*
X2177992Y1864882D02*
X2263970D01*
X2275000Y1825000D02*
X2305000Y1855000D01*
X2177992Y1884567D02*
X2234567D01*
X2270000Y1920000D01*
X2009685Y1795000D02*
Y1841026D01*
X2025000Y1856341D01*
Y1865000D01*
X1385000Y1965000D02*
X1420000Y1930000D01*
X1385000Y1965000D02*
Y2558898D01*
X1911260Y2111929D02*
Y2481260D01*
X2486067Y3027316D02*
X2493752Y3035000D01*
X2457316Y3027316D02*
X2486067D01*
X1911260Y2481260D02*
X2457316Y3027316D01*
X1795000Y2035000D02*
Y2395000D01*
X2392488Y2992488D01*
Y3033736D01*
X2393752Y3035000D01*
X1795000Y2035000D02*
X1807638Y2022362D01*
X1861063D01*
X2061850Y2291850D02*
Y2340000D01*
X2049055Y2279055D02*
X2061850Y2291850D01*
X2049055Y2111929D02*
Y2279055D01*
D14*
X2029370Y1743604D02*
Y1766350D01*
Y1743604D02*
X2059486Y1713488D01*
X3360575D02*
X3533032Y1885945D01*
X1385000Y2671102D02*
Y2750000D01*
X2059486Y1713488D02*
X3360575D01*
X3533032Y1885945D02*
X3535000D01*
D15*
X2096063Y1923937D02*
X2177992D01*
X2065000Y1955000D02*
X2096063Y1923937D01*
X1931106Y1828533D02*
X2025000Y1922426D01*
Y1955000D02*
X2065000D01*
X2025000Y1922426D02*
Y1955000D01*
X1999055Y1680000D02*
X2004055Y1675000D01*
X2145000D01*
X1555000Y1583347D02*
Y1710000D01*
X1755000Y1910000D01*
X1705000Y1583347D02*
Y1833130D01*
X1774000Y1902130D02*
Y1947130D01*
X1809862Y1982992D01*
X1705000Y1833130D02*
X1774000Y1902130D01*
X1809862Y1982992D02*
X1861063D01*
X1755000Y1910000D02*
Y1955000D01*
X1802677Y2002677D01*
X1785000Y1430000D02*
X1875945D01*
X1785000Y1365000D02*
Y1423819D01*
X1555000Y1414728D02*
X1572772Y1432500D01*
X1602500D01*
X1776319D01*
X1605000Y1435000D02*
Y1578347D01*
X1776319Y1432500D02*
X1785000Y1423819D01*
X1555000Y1371654D02*
Y1414728D01*
X1602500Y1432500D02*
X1605000Y1435000D01*
X1875945Y1430000D02*
X1890000Y1415945D01*
X1802677Y2002677D02*
X1861063D01*
X1925000Y2015000D02*
X1960000D01*
X1861063Y2042047D02*
X1861224Y2041886D01*
X1898114D01*
X1925000Y2015000D01*
X2044552D02*
X2107949Y2078397D01*
Y2111768D01*
X1960000Y2015000D02*
X2044552D01*
X2107949Y2111768D02*
X2108110Y2111929D01*
X1930945Y1795000D02*
X1931106Y1795161D01*
Y1828533D01*
X2935000Y1940000D02*
Y1980000D01*
X2856968Y1928465D02*
X2923465D01*
X2935000Y1940000D01*
Y1980000D02*
Y2015000D01*
X2856968Y2028465D02*
X2921535D01*
X2935000Y2015000D01*
X2695472Y1922362D02*
X2787874D01*
X2793976Y1928465D01*
X2695472Y2034567D02*
X2787874D01*
X2793976Y2028465D01*
X2584370Y1922362D02*
X2695472D01*
X2560472Y1898465D02*
X2584370Y1922362D01*
X2560472Y2059882D02*
X2585787Y2034567D01*
X2695472D01*
X2560472Y1995472D02*
Y2059882D01*
Y1898465D02*
Y1954528D01*
X2551693Y1963307D02*
X2560472Y1954528D01*
X2177992Y1963307D02*
X2551693D01*
X2547992Y1982992D02*
X2560472Y1995472D01*
X2177992Y1982992D02*
X2547992D01*
D16*
X2361075Y210000D02*
D03*
X2526429D02*
D03*
X2196114D02*
D03*
X2691390D02*
D03*
X2856350D02*
D03*
X2361075Y460000D02*
D03*
X2526429D02*
D03*
X2196114D02*
D03*
X2691390D02*
D03*
X2031153D02*
D03*
X2856350D02*
D03*
D17*
X2031153Y210000D02*
D03*
D18*
X2093752Y710000D02*
D03*
X2793752D02*
D03*
D19*
X2293752Y3035000D02*
D03*
D20*
X2393752D02*
D03*
X2493752D02*
D03*
X2593752D02*
D03*
D21*
X1950000Y1935000D02*
D03*
X2305000Y1470000D02*
D03*
X1845000Y1075000D02*
D03*
X2995000Y980000D02*
D03*
Y865000D02*
D03*
X3280000Y1010000D02*
D03*
X2265000Y2055000D02*
D03*
X2085000Y1880000D02*
D03*
X2025000Y1955000D02*
D03*
X2145000Y1675000D02*
D03*
X1680000Y2090000D02*
D03*
X1850000Y2190000D02*
D03*
X1870000Y505000D02*
D03*
X1929130Y549147D02*
D03*
X2225000Y1790000D02*
D03*
X2170000D02*
D03*
X2184186Y564186D02*
D03*
X1985000Y1590000D02*
D03*
X2325000Y1795000D02*
D03*
X2320000Y1285000D02*
D03*
X2455000Y1885000D02*
D03*
X2405000Y1920000D02*
D03*
X2340000D02*
D03*
X2270000D02*
D03*
X1740000Y1665000D02*
D03*
X1798458Y1781542D02*
D03*
X1600000Y1895000D02*
D03*
X1420000Y1930000D02*
D03*
X2025000Y1865000D02*
D03*
X1680000Y1970000D02*
D03*
X1480000Y1795000D02*
D03*
X2320918Y2814082D02*
D03*
X2230000Y2340000D02*
D03*
X1385000Y2750000D02*
D03*
X1950000Y1110000D02*
D03*
X2040000Y990000D02*
D03*
X2320000Y2310000D02*
D03*
X1785000Y1365000D02*
D03*
X1960000Y2015000D02*
D03*
X1750000Y645000D02*
D03*
Y2685000D02*
D03*
X2935000Y1980000D02*
D03*
X1475000Y775000D02*
D03*
X2595000Y645000D02*
D03*
X2320000Y775000D02*
D03*
X3435000Y645000D02*
D03*
X3160000Y775000D02*
D03*
X1475000Y1285000D02*
D03*
X1750000Y1155000D02*
D03*
X2595000D02*
D03*
X3435000D02*
D03*
X3160000Y1285000D02*
D03*
X2600000Y1665000D02*
D03*
X3440000D02*
D03*
X3165000Y1795000D02*
D03*
X1475000Y2310000D02*
D03*
X1750000Y2180000D02*
D03*
X2595000D02*
D03*
X3435000D02*
D03*
X3160000Y2310000D02*
D03*
Y2815000D02*
D03*
X3435000Y2685000D02*
D03*
X2595000D02*
D03*
X1475000Y2815000D02*
D03*
D22*
X3495000Y130000D02*
D03*
X1430000D02*
D03*
X3495000Y2995000D02*
D03*
X1435000Y2990000D02*
D03*
D23*
X1845000Y1293071D02*
D03*
Y1176929D02*
D03*
X2800000Y1008071D02*
D03*
Y891929D02*
D03*
D24*
X2905236Y1170354D02*
D03*
X3084764D02*
D03*
D25*
X2995000Y926260D02*
D03*
D26*
X3190000Y890945D02*
D03*
Y1009055D02*
D03*
X1890000Y1415945D02*
D03*
Y1534055D02*
D03*
X1680000Y1970945D02*
D03*
Y2089055D02*
D03*
D27*
X2392992Y945000D02*
D03*
X2517008D02*
D03*
X2392992Y1470000D02*
D03*
X2517008D02*
D03*
Y2490000D02*
D03*
X2392992D02*
D03*
D28*
X1385000Y2671102D02*
D03*
Y2558898D02*
D03*
X2695472Y2034567D02*
D03*
Y1922362D02*
D03*
D29*
X1949449Y1226142D02*
D03*
X2040000D02*
D03*
X2130551D02*
D03*
D30*
X2040000Y993858D02*
D03*
D31*
X2127795Y2111929D02*
D03*
X2108110D02*
D03*
X2088425D02*
D03*
X2068740D02*
D03*
X2049055D02*
D03*
X2029370D02*
D03*
X2009685D02*
D03*
X1990000D02*
D03*
X1970315D02*
D03*
X1950630D02*
D03*
X1930945D02*
D03*
X1911260D02*
D03*
Y1795000D02*
D03*
X1930945D02*
D03*
X1950630D02*
D03*
X1970315D02*
D03*
X1990000D02*
D03*
X2009685D02*
D03*
X2029370D02*
D03*
X2049055D02*
D03*
X2068740D02*
D03*
X2088425D02*
D03*
X2108110D02*
D03*
X2127795D02*
D03*
D32*
X1861063Y2061732D02*
D03*
Y2042047D02*
D03*
Y2022362D02*
D03*
Y2002677D02*
D03*
Y1982992D02*
D03*
Y1963307D02*
D03*
Y1943622D02*
D03*
Y1923937D02*
D03*
Y1904252D02*
D03*
Y1884567D02*
D03*
Y1864882D02*
D03*
Y1845197D02*
D03*
X2177992D02*
D03*
Y1864882D02*
D03*
Y1884567D02*
D03*
Y1904252D02*
D03*
Y1923937D02*
D03*
Y1943622D02*
D03*
Y1963307D02*
D03*
Y1982992D02*
D03*
Y2002677D02*
D03*
Y2022362D02*
D03*
Y2042047D02*
D03*
Y2061732D02*
D03*
D33*
X3535000Y2004055D02*
D03*
Y1885945D02*
D03*
D34*
X1999055Y1680000D02*
D03*
X1880945D02*
D03*
X2170945Y2210000D02*
D03*
X2289055D02*
D03*
D35*
X2560472Y2059882D02*
D03*
Y1898465D02*
D03*
D36*
X3535000Y2113976D02*
D03*
Y2236024D02*
D03*
D37*
X2061850Y2340000D02*
D03*
X2168150D02*
D03*
D38*
X2793976Y1928465D02*
D03*
X2856968D02*
D03*
X2793976Y2028465D02*
D03*
X2856968D02*
D03*
D39*
X1705000Y1371654D02*
D03*
X1655000D02*
D03*
X1605000D02*
D03*
X1555000D02*
D03*
X1705000Y1578347D02*
D03*
X1655000D02*
D03*
X1605000D02*
D03*
X1555000D02*
D03*
D40*
X1785000Y1423819D02*
D03*
Y1526181D02*
D03*
D41*
X3100000Y1170354D02*
X3110000D01*
X3110354Y1170000D01*
X3135000D01*
X3190000Y1009055D02*
Y1115000D01*
X3135000Y1170000D02*
X3190000Y1115000D01*
Y1009055D02*
X3279055D01*
X3280000Y1010000D01*
X2135000Y1305000D02*
Y1350000D01*
X2130551Y1300551D02*
X2135000Y1305000D01*
D42*
X2517008Y2482764D02*
Y2490000D01*
X2509244Y2475000D02*
X2517008Y2482764D01*
X2485000Y2475000D02*
X2509244D01*
X2320000Y2310000D02*
X2485000Y2475000D01*
%TF.MD5,1e8bcd2b24840ed153299e10f6ea9962*%
M02*
